/* XPM */
static char *result[] = {
/* columns rows colors chars-per-pixel */
"64 64 39 1 ",
"  c #000000",
". c #0C0C0C",
"X c #131313",
"o c #1C1C1C",
"O c #232424",
"+ c #2C2C2C",
"@ c #2F3030",
"# c #333333",
"$ c #3B3B3B",
"% c #434343",
"& c #4C4C4C",
"* c #535353",
"= c #5B5B5B",
"- c #5E6060",
"; c #646464",
": c #6C6C6C",
"> c #737373",
", c #7C7C7C",
"< c #838383",
"1 c #878888",
"2 c #8B8B8B",
"3 c #8F9090",
"4 c #939393",
"5 c #9C9C9C",
"6 c #A3A3A3",
"7 c #ACACAC",
"8 c #B4B4B4",
"9 c #BBBCBC",
"0 c #C3C3C3",
"q c #CCCCCC",
"w c #CFD1D1",
"e c #D3D3D3",
"r c #D5D8D8",
"t c #DBDBDB",
"y c #DFE0E0",
"u c #E3E3E3",
"i c #EBEBEB",
"p c #F4F4F4",
"a c #FFFFFF",
/* pixels */
"                                                                ",
"                                                                ",
"                                                                ",
"                                                                ",
"                                                                ",
"                            ...                                 ",
"                          X=796;.                               ",
"                         X4paaap4.                              ",
"                         >paaaaaa:                              ",
"                        X9aaaaaaa0X                             ",
"                        OtaaaaaaauO                             ",
"                        otaaaaaaai+                             ",
"                        .0aaaaaaaro O&%X                        ",
"                         ,aaaaaaa<.*tpi9%                       ",
"                         X7aaaaa5X*uaaaat*                      ",
"                          o1tuq:.$taaaaaai:.                    ",
"                         o*506:+o8aaaaaaaap>.                   ",
"                    o$;,5queqtpuqaaaaaaaaaai<.                  ",
"                  o100646e9#o%209aaaaaaaaaaaa5X                 ",
"                 O9i1+.oXo*OO><*,aaaaaaaaaaaaa6O                ",
"              o;5qp2X*#35<2679t7qaaaaaaaaaaaaaaq#               ",
"            .*992>1<+<qq587*@O#2iaaaaeyaaaaaaaaar%              ",
"           @4q3**&-<39i2.O,74<27paaaa24aaaaaaaaaau*             ",
"         &6t0;>77up7*+=6=$,0:%5upaaaa4+taaaaaaaaaai;.           ",
"        =q<<% +:7p5+OOX52,y7$o5paaaaa5 <aaaaaaaaaaap:           ",
"       #t8*&>2<5ew@*9*o;=8:&>2<5aaaaa2 X6aaaaaaaaaaato          ",
"      X4r6&:<q0*#2$+9$o=9>$<-$X;aaaaa4.X+raaaaaaaaaai+          ",
"      ;26*o,9t;>&$@+q99i7O2< %;1aaaaa5-,*,taaaaaaaaato          ",
"     &829**0uw>8O O56::92 @<X%;6aaaaa6X.:0:*=5aaaaaa1           ",
"    +e98**t1#;:5*$5>XXOO>o.2#>X-aaaaa<  o95O=9aaaaau#           ",
"   X50i4.40+#*&0yuqo +3$@O.6;; ;aaaaa2XOO=q*;iaaaaa4            ",
"   >5:u6>t,$607<=<4X #89# X82> ;aaaaa9,,$$u::aaaaau#            ",
"  X9><54tq$X9p>o%#O.$qq<#.+<8< *aaaaai:X %iqqaaaaa4             ",
"  $u06<8**+;74:#8> X56O .$X*t< %paaaau6X.<9raaaaaa=             ",
"  3pe8wqO#3,ooX 45$<9O  *% $q8+%aaaaa57>;>+7aaaaaa8%.           ",
" X0<&t7=:09oX,=$9i0t8X .*. O9=#%paaaa><i<.$uaaaaaaap0>+         ",
" O0*=u*O87=O+%q9eq=%6>O.+..X7#$%uaaap:>e+ 1aaaaaaaaaaau6*X      ",
" #7889**6OX@<54*96&.+6663,>+4>54paaaa>70O+eaaaaaaaaaaaaaa0>o    ",
" $9t,=>&6XX#oo$*,X ...o%*#.*0,8iaaaaa07889aaaaaaaaaaaaaaaaat,o  ",
" $ip=&9*7=&q<%<;o $665,o o:>=#:paaaap<oo2aaaaaai5qaaaaaaaaaaa6. ",
" Otp,>841t0:*0i0,49,;<6::$<5. <0qaaau%  =paaaaau$+<0paaaaaaaauO ",
"  5a<O#&;t5..<3:,t7O5,$:&; =;#7q=7pq44=X5aaaaaaa,o+X;9aaaaaaai# ",
"  &i1,0;@q9*oX   1,*61>$.:Xo658q667+#O*%uaaaaaaaq4&  X;qaaaaa9X ",
"   1y9416t618:$#o56$+%6# *% 4<O+6i&.<+ ;aaaaaaaait*    o:qii9#  ",
"   X4p,o71.o88t6,<9X+<,5#>< *0+ %9o#02#>paaaaaaaaa5X     o#+.   ",
"    .>q9r= .#<9O;$$ *%X<$9q,<t% O6oO#,ttaaaaaaaaaaa9$           ",
"      $0a<  $:, *$.o;>%17t7:>e5XO8%o ;t54uaaaaaaaaaau,X         ",
"       O7t&.X#; *>o;&=<8,%>*;05&$ir,X4;X.=qiaaaaaaaaaa9$.       ",
"        o5q##>+ O>o&5.XX. =uy2XX,q*o=6+=oo#2aaaaaaaaaaai4O      ",
"         X<00,*5e5.+q;.  .2r*. #e1@>8*,<X #0w1qaaaaaaaaaat:.    ",
"          .&=&$*5972i7$+&5pq&@*0autp67u>%>qr# O1uaaaaaaaaap:    ",
"                 +59wuuttw90eetq80ipuw89tit&   .$7paaaaaaaaeo   ",
"                   .o%:;#X.X#%+X..+$#X.X@%+      .=qaaaaaaai#   ",
"                                                   o<uaaaaato   ",
"                                                     #7paap,    ",
"                                                      .=67;.    ",
"                                                        ..      ",
"                                                                ",
"                                                                ",
"                                                                ",
"                                                                ",
"                                                                ",
"                                                                ",
"                                                                "
};
