/* XPM */
static char *result[] = {
/* columns rows colors chars-per-pixel */
"64 64 256 2 ",
"   c #000000",
".  c #0C0B0A",
"X  c #090707",
"o  c #0C0D12",
"O  c #181616",
"+  c #121010",
"@  c #261C1A",
"#  c #391C1A",
"$  c #29221F",
"%  c #3A251E",
"&  c #181D26",
"*  c #16193A",
"=  c #1C2528",
"-  c #192838",
";  c #08363D",
":  c #183338",
">  c #282828",
",  c #382725",
"<  c #252D3B",
"1  c #353331",
"2  c #2E1B38",
"3  c #4A1C23",
"4  c #591D25",
"5  c #6F1926",
"6  c #492B27",
"7  c #4C332B",
"8  c #463128",
"9  c #55362D",
"0  c #473934",
"q  c #543B32",
"w  c #5B3B34",
"e  c #54222F",
"r  c #623B35",
"t  c #783939",
"y  c #6C2A2D",
"u  c #5C1618",
"i  c #29423C",
"p  c #08433E",
"a  c #5B453A",
"s  c #485336",
"d  c #64443A",
"f  c #6A4439",
"g  c #72473E",
"h  c #73553A",
"j  c #695934",
"k  c #6C683E",
"l  c #171A45",
"z  c #171B54",
"x  c #063B47",
"c  c #162D4C",
"v  c #242A43",
"b  c #293447",
"n  c #2C3355",
"m  c #13196A",
"M  c #152167",
"N  c #2A366A",
"B  c #533B49",
"V  c #77344C",
"C  c #651C47",
"Z  c #15474A",
"A  c #094955",
"S  c #184755",
"D  c #105150",
"F  c #284C49",
"G  c #384A49",
"H  c #39574A",
"J  c #264A55",
"K  c #295757",
"L  c #395956",
"P  c #324E4F",
"I  c #346857",
"U  c #0B5969",
"Y  c #13596C",
"T  c #265667",
"R  c #344578",
"E  c #324D70",
"W  c #186677",
"Q  c #126C73",
"!  c #366867",
"~  c #367979",
"^  c #2D6C6F",
"/  c #1B6753",
"(  c #495B56",
")  c #4F5247",
"_  c #684B42",
"`  c #774C42",
"'  c #7A5547",
"]  c #715752",
"[  c #516B55",
"{  c #676857",
"}  c #796356",
"|  c #736C4E",
" . c #455070",
".. c #5A7867",
"X. c #467A78",
"o. c #4C6C6C",
"O. c #697A78",
"+. c #6F7368",
"@. c #B30617",
"#. c #941423",
"$. c #A83030",
"%. c #991A25",
"&. c #CA0215",
"*. c #DB1F21",
"=. c #8A4D3A",
"-. c #AD492D",
";. c #8C7039",
":. c #CA4B32",
">. c #CE732F",
",. c #CB531F",
"<. c #8C3740",
"1. c #A4205A",
"2. c #D13E41",
"3. c #854B45",
"4. c #875549",
"5. c #945A4D",
"6. c #865953",
"7. c #9A5D54",
"8. c #955952",
"9. c #9A464D",
"0. c #A74B52",
"q. c #A65854",
"w. c #AF5352",
"e. c #886656",
"r. c #9B6254",
"t. c #9D6B56",
"y. c #9D6E5A",
"u. c #966857",
"i. c #9C715D",
"p. c #90644C",
"a. c #A46B5A",
"s. c #AA6C5D",
"d. c #A66657",
"f. c #B3685D",
"g. c #A9725E",
"h. c #B86C57",
"j. c #997667",
"k. c #897569",
"l. c #AC6D62",
"z. c #A56C61",
"x. c #B36D64",
"c. c #BA6E66",
"v. c #A47364",
"b. c #AD7364",
"n. c #AD7C6A",
"m. c #A87A67",
"M. c #B27264",
"N. c #B37B65",
"B. c #B37E6C",
"V. c #BB7B6B",
"C. c #B97669",
"Z. c #A87B71",
"A. c #9A4D72",
"S. c #D64A4C",
"D. c #C3786D",
"F. c #C27D71",
"G. c #EF5468",
"H. c #368879",
"J. c #718851",
"K. c #518E7A",
"L. c #678868",
"P. c #6E9170",
"I. c #65A17F",
"U. c #CFA233",
"Y. c #BAA957",
"T. c #918E76",
"R. c #BC826C",
"E. c #B6816A",
"W. c #AA8474",
"Q. c #B88978",
"!. c #B58C79",
"~. c #AEB277",
"^. c #AEA467",
"/. c #C3836E",
"(. c #C88778",
"). c #CF8E7C",
"_. c #DAA764",
"`. c #B8C07E",
"'. c #EBD86D",
"]. c #132D86",
"[. c #38549A",
"{. c #324D88",
"}. c #0C738A",
"|. c #2A7683",
" X c #2C7890",
".X c #2567AF",
"XX c #455A97",
"oX c #4A5B89",
"OX c #506D8F",
"+X c #667893",
"@X c #4A67AA",
"#X c #5873AA",
"$X c #4F6BA9",
"%X c #445CA8",
"&X c #4767C2",
"*X c #553499",
"=X c #996B92",
"-X c #368885",
";X c #108BAD",
":X c #3793A9",
">X c #18849C",
",X c #4A8786",
"<X c #56978A",
"1X c #4E9092",
"2X c #6C908C",
"3X c #6FAC98",
"4X c #4C93AC",
"5X c #768EAB",
"6X c #59A8A9",
"7X c #47AABC",
"8X c #53ABB2",
"9X c #6BB1B2",
"0X c #7AC7B2",
"qX c #0890C9",
"wX c #3CACC4",
"eX c #2595CA",
"rX c #45ACC6",
"tX c #54B4C9",
"yX c #74B5C5",
"uX c #5E97CB",
"iX c #56C6D7",
"pX c #6DD0CD",
"aX c #8F9594",
"sX c #91AA93",
"dX c #A8AC8B",
"fX c #888EAC",
"gX c #97B1AB",
"hX c #AAB9AB",
"jX c #AB9385",
"kX c #CB9784",
"lX c #D59987",
"zX c #D1948D",
"xX c #E09B8E",
"cX c #DBA28E",
"vX c #DBA694",
"bX c #CEA79A",
"nX c #EAAB99",
"mX c #CBB6AD",
"MX c #F0B1A9",
"NX c #85D1AC",
"BX c #B8C8A3",
"VX c #CAD9AF",
"CX c #F2C6BA",
"ZX c #E4EAB9",
"AX c #8FB1CE",
"SX c #B4BECF",
"DX c #8A84C6",
"FX c #8CCFCF",
"GX c #AAE3E6",
"HX c #A3D2E8",
"JX c #D6D6CB",
"KX c #DBECEC",
"LX c #FFFFFE",
"PX c #FBFEF4",
"IX c #EAF1F3",
"UX c #E2E1D6",
/* pixels */
"                                                                                                                                ",
"                                                                                                                                ",
"                                                                                                                                ",
"                                                                                                                                ",
"                                                                                                                                ",
"                                                                                                                                ",
"                                                                                                                                ",
"                                                                                                                                ",
"                                                                                                                                ",
"                                                                                                                                ",
"                                                                                                                                ",
"                                                                                                                                ",
"                                        X                               X       X                                               ",
"                                                                    = 3X9X:                                                     ",
"                                      X @ , @ @ +     @ 6 6 7 >   + X.9XpXrX: & n b & & X                                       ",
"                                      . lXCXCXMXxXb.z.V.h.h.).!.. i 1X9XiXwXwX&X&X%X@X$X$XoX .b +                               ",
"                      X           o O a (.MXnXnXnX/.Q.W.i.i.e.j s  .1XtXiXwX:X%X{.[.[.[.[.[.%X@X[.N - X                         ",
"                        + ) } j.!.bXbXnXvXlXlXkX).).).).kX).!.!.e.! 1X7XiXwXXX[.R N n b P F D / X.fXOX#XoXv X                   ",
"                    O _ E.zXlXcXcXvXvXvXvXvXvXkX).!.Q.R.W.E.i.W.{ |.4X7XiX6Xw.>.Y.Y.-.p.P.K.K.3X3XaXaX5XOX[.oX&                 ",
"                X a E.R.B.B.Q./.).kXlXlXxXvXlXlX(.E.E.g.i.E.i.p.) OX8XtXwX2X:.:.,.U._.-.} P.X.OXE : c ; J }.@X$XO               ",
"              O e.E.m.n.n.n.B./.(.zX).lXlXlXlX(.(.E.m.g.u.u.u.} G ,X<X8XrXO.w.t.4.-.U.>.5 < : x x J Y >X XqXeX:XXXX             ",
"            . u.n.m.m.E.B.B.N.V.F.F.F.zX).lX).F.R.M.a.u.p.p.' 1 G <X1X1XpX[ { +.+.p.-.U.,.=...P.5X9XyXtXqXqXeX4XuXE             ",
"            ' m.v.b.N.R.R.B.M.N.F.(.(.F.F.).F.D.g.t.a.h j ' f $ L 2X2X6X8XJ.L.3X1X..| ;.,.$.+.K.H.>X;X;X;XqX>X1XtXuX&           ",
"          q m.a.b.N.N.N.N.M.g.N.V.F.F.F.).(.D.x.r.u.u._ , d j $ L O.2XNX0X] ) -X>XW I ..h =.{ o.^ }.;X;X.XqXyXyXFXHX .          ",
"        @ y.g.E.E.E.E.E.s.t.d.g.c.V.c.V.D.F.D.f.u.6.' _ > 7 w = ..+.5X0X0X| F -X;X}.^ X...{ ..X.K.|.;X;X+XhXyXGXKXHX5Xo         ",
"        a n.E.E.E.R./.t.9 r 5.h.x.x.f.c.D.D.c.l.u.3.r @ + % 9 = L._.BX6XK.| I -X;X}.Q W K...L.H.^ ( |..XaXCXSXFXFXGXAX<   X     ",
"      + y.B.R.R./.(.E.+     f s.c.x.f.l.c.D.c.s.u.` w o . % s = P.'.BX6XL.h [ H.;X}.U }.^ ^ ^ Q Q P ] ] J ( DXJXIXIXHX .  X     ",
"      , N.B././././.=.X     r x.M.C.x.f.d.c.C.a.5.` e 1 O % 6 = 2X~.jXNXJ.j ( ^ |.}.U }.~ -X|.>XT B V $.<.) ].fXZXIXIX+X        ",
"      q M.V./.V.E.h.9.X     4 w.C.V.x.q.q.d.l.z.4._ 6 % % 7 8 i ,X^.gXK.J.k I / W Y U W ^ X.T T V &.*.*.*.1.XX#XVXVXKX+X        ",
"      ' M.V.V.V.V.w.0.X     3 0.z.C.7.q.D.D.l.d.4.g 9 % 6 w 0 i K.~.gXK.k [ i L ^ T S N Z : l b V $.@.#.C <.R *XjXZXKXfX        ",
"    + 6.g.C././.x.w.9.X     3 0.l.c.=.t D.F.x.7.3.g 9 9 a d a i OX^.hX,XJ.J.K ,X|.^ T T b l - > | n M V 9.G.DX*XzXJXLXfX        ",
"    + 5.a.M.V./.d.w.<.      4 0.x.A.` 7.D.C.l.7.4.` f r f f q F -X~.sX~ J.) G ( K K S : l v , s ( m {.9.*._.SX1.MXKXLXAXo       ",
"    X ' d.g.V.N.f.0.<.      4 w.l.8.3.f.F.x.q.5.3.3.f r d f a F -XdXdX^ J.[ [ / ^ K c l ].R y a < z N @.>.Y.=XS.UXLXLXAXXXX X   ",
"      ` a.s.c.C.q.0.t       6 w.f.3.` d.D.d.7.3.3.` r 7 9 w 1 F <XT.sXK.k J.] ] P * * z M N 5 y > * l p.`.=XvXzXCXIXLX#X$XX     ",
"      a d.l.M.M.f.0.t       3 7.7.4.g 5.d.7.5.' ' ` w 8 7 q 0 F ,X`.hXK.$.%.@.#.e z l P c c , 3 = & * B @X=X2.kXbXmXLX+Xv       ",
"      , r.r.s.s.a.q.<.      # 7.8.6.y ` d.7.8.3._ q 8 8 7 q 8 K <XT.sXL.;.h ' { w e B 0 1 t #.3 = & & l m @.G.} ] UXIX&   X     ",
"      @ p.t.a.a.g.a.t       % r.8.8.3.8.r.4.4.' f 7 6 % 8 7 1 I <XdXsX..j | aX$.@.@.&.&.*.&.&.@., & l z C @.0.{ aXLXSX          ",
"      X e.y.a.a.a.g.g       7 d.7.d.7.5.8.7.7.' f 9 % $ % 8 , I.NX~.L.H h ) ( q u %.=.#.@.@.@.@.4 M .Xn #.S.T.aXLXLXO.  X       ",
"        9 g.y.a.t.g.4.    X h r.d.s.s.s.l.M.r.4.f 7 6 @ @ 8 > K.NX`.P.L.e...{ t y t =Xj.y e 1 e 2 m M 5 <.dXmXMXPXIX=           ",
"        X | t.t.y.t.d.f % d 5.r.s.M.s.x.c.x.r.4.r w @ . $ q > I.0XdX2XL.J.L.I.O.T.) B k.N ].].].m * 2 2 - : 1 G o.oXX           ",
"          , y.u.i.i.t.t.t.p.5.r.s.M.M.x.M.l.7.4.f w @ o @ 7 1 K.0X~.<XP.k [ L./ D Z Z c ; l l l M P J P L ) ) H E b             ",
"            s W.u.t.t.a.t.r.7.t.s.l.M.l.l.s.d.4._ a 7 1 $ 7 > K.NX~.:XL.j H.H.H.W ^ T Y T Y S S J S S S J ( { ~ $X=             ",
"              a m.i.v.v.g.i.t.a.s.b.x.x.l.l.a.5.` h q $ 7 q = ~ 0XdX6Xo.k H.H.U U A U U U W ^ |.|.OX2X2XT.r.g.fXOXX             ",
"                0 W.Z.v.a.a.y.v.v.l.b.M.b.l.b.u.4.h d 8 ] _ > I 3XsX8X! s p D p ; p ; ; x x A A U U W jXQ.2.S.fX-               ",
"                  $ e.W.Z.j.v.j.v.l.b.M.N.b.b.z.p.e.j | e._ > L 3XNX:XK.H / / D Z Z S A A S D A A x T bX).*.q.n                 ",
"                    X 1 } W.!.!.Q.Q.Z.V.B.n.n.n.i.p.e.' } e.) K 8X8X:XK.) i / D ; A x A A U D K ! I aXjXC.B. ..                 ",
"                          O 1 _ } k.W.jX!.W.!.W.W.i.e.} e.j.} I 8XiX:XH.I ) P Z F D A A A A Z H ( { aXT oXE X                   ",
"                                    O Z.Q.Q.kX!.!.W.W.W.j.W.j.I 8XrX:XH.T E E N S n J S S x F ! o.oX+X! v                       ",
"                                      + @ , r ` e.y.v.e.e.] a F 8XiX9X1X|.N R {.{.{.{.R R R E [.%XXXn +                         ",
"                                                  X r 7.7.B.$ = 6XFX6X-X|.|.[.%X@X$X@X#X#X#X#XoX .o   X                         ",
"                                          X           . + , X   ~ 0X0X<XJ < < b < b < < = = o                                   ",
"                                                                + L ( O                                                         ",
"                                                                            X                                                   ",
"                                                                  X X                                                           ",
"                                                                                                                                ",
"                                                                                                                                ",
"                                                                                                                                ",
"                                                                                                                                ",
"                                                                                                                                ",
"                                                                                                                                ",
"                                                                                                                                ",
"                                                                                                                                ",
"                                                                                                                                ",
"                                                                                                                                "
};
