/* XPM */
static char *result[] = {
/* columns rows colors chars-per-pixel */
"64 64 255 2 ",
"   c #000000",
".  c #0A0506",
"X  c #0B0B0C",
"o  c #110708",
"O  c #130D0B",
"+  c #0F0F13",
"@  c #171415",
"#  c #261B19",
"$  c #3C1F1D",
"%  c #2C211F",
"&  c #32221D",
"*  c #171B25",
"=  c #181E37",
"-  c #1B222C",
";  c #192E3D",
":  c #282726",
">  c #382824",
",  c #32312F",
"<  c #252A39",
"1  c #263638",
"2  c #363833",
"3  c #5F1A1C",
"4  c #521D28",
"5  c #452A25",
"6  c #47332A",
"7  c #4B332B",
"8  c #54362E",
"9  c #532631",
"0  c #493834",
"q  c #553934",
"w  c #5B3C33",
"e  c #683A37",
"r  c #703032",
"t  c #2A433D",
"y  c #474838",
"u  c #5A433A",
"i  c #68443A",
"p  c #75463D",
"a  c #6F5C3A",
"s  c #74623F",
"d  c #191D4B",
"f  c #2C1D45",
"g  c #192646",
"h  c #083E44",
"j  c #182C54",
"k  c #262B44",
"l  c #283447",
"z  c #2E3153",
"x  c #363B55",
"c  c #1A1A61",
"v  c #182871",
"b  c #282C62",
"n  c #363A67",
"m  c #502C4B",
"M  c #75364E",
"N  c #09444B",
"B  c #16454B",
"V  c #0B4854",
"C  c #194857",
"Z  c #125754",
"A  c #2A4947",
"S  c #3B4C4B",
"D  c #2B5749",
"F  c #39534C",
"G  c #254954",
"H  c #295657",
"J  c #375656",
"K  c #1C634A",
"L  c #35665A",
"P  c #0B5666",
"I  c #195666",
"U  c #135E72",
"Y  c #275768",
"T  c #344C70",
"R  c #176776",
"E  c #106A75",
"W  c #28686B",
"Q  c #386867",
"!  c #276977",
"~  c #2B767A",
"^  c #397072",
"/  c #387676",
"(  c #50514C",
")  c #465959",
"_  c #6C4C42",
"`  c #774C43",
"'  c #6F564F",
"]  c #785547",
"[  c #596543",
"{  c #526B53",
"}  c #696943",
"|  c #74704B",
" . c #686A57",
".. c #756456",
"X. c #475775",
"o. c #456465",
"O. c #45776A",
"+. c #567669",
"@. c #566B72",
"#. c #477978",
"$. c #71756B",
"%. c #AA0A1B",
"&. c #BC071D",
"*. c #8F1927",
"=. c #B00F26",
"-. c #9E2229",
";. c #8C3139",
":. c #C6031B",
">. c #E3112C",
",. c #C53C23",
"<. c #8E4D39",
"1. c #B35130",
"2. c #876B3D",
"3. c #B56A35",
"4. c #CC4D33",
"5. c #D47031",
"6. c #953153",
"7. c #864B45",
"8. c #96454C",
"9. c #87564A",
"0. c #94594D",
"q. c #835A53",
"w. c #975752",
"e. c #945D52",
"r. c #9A5D54",
"t. c #A2484E",
"y. c #A55655",
"u. c #AC5250",
"i. c #94644B",
"p. c #886756",
"a. c #926554",
"s. c #9C6355",
"d. c #986958",
"f. c #9D6D5A",
"g. c #9C715C",
"h. c #A36657",
"j. c #AB6652",
"k. c #AD655B",
"l. c #A36C5A",
"z. c #AA6C5D",
"x. c #A8725E",
"c. c #925072",
"v. c #916E67",
"b. c #9A7666",
"n. c #A56C63",
"m. c #AC6D62",
"M. c #B36C63",
"N. c #B76C65",
"B. c #A47363",
"V. c #AC7364",
"C. c #A87A68",
"Z. c #B27264",
"A. c #B37C65",
"S. c #B97569",
"D. c #B27D6C",
"F. c #BB7B6B",
"G. c #B47D71",
"H. c #CE5257",
"J. c #DA4F6E",
"K. c #C1796C",
"L. c #C37D71",
"P. c #3B817C",
"I. c #6E8851",
"U. c #4D8675",
"Y. c #59947B",
"T. c #698868",
"R. c #6C8E72",
"E. c #C99432",
"W. c #B2914D",
"Q. c #8A8F7A",
"!. c #B4806A",
"~. c #BC836C",
"^. c #AB8473",
"/. c #B68675",
"(. c #BC9079",
"). c #9BA67B",
"_. c #AFAE74",
"`. c #D29A57",
"'. c #C1836D",
"]. c #C78779",
"[. c #D68878",
"{. c #C7927E",
"}. c #D6CA70",
"|. c #323991",
" X c #2F4C8B",
".X c #3B5989",
"XX c #375398",
"oX c #0F758C",
"OX c #297582",
"+X c #2E768B",
"@X c #3A61AD",
"#X c #514F8E",
"$X c #435786",
"%X c #425D98",
"&X c #49698D",
"*X c #586D88",
"=X c #496499",
"-X c #546897",
";X c #697594",
":X c #544FA0",
">X c #4A6BA9",
",X c #9F7B9D",
"<X c #1A869C",
"1X c #31878B",
"2X c #0F8AAC",
"3X c #3391B2",
"4X c #4C8683",
"5X c #568A85",
"6X c #4D9491",
"7X c #559798",
"8X c #73898A",
"9X c #6C9091",
"0X c #6CAD9B",
"qX c #4E98AA",
"wX c #728BAB",
"eX c #52A8B0",
"rX c #6CB0AB",
"tX c #65B8B7",
"yX c #7DC49F",
"uX c #7CC5AB",
"iX c #0E91C7",
"pX c #3FB2C6",
"aX c #4AABC4",
"sX c #56B4CA",
"dX c #73B5C6",
"fX c #56C4D3",
"gX c #6FD0CE",
"hX c #8A8F93",
"jX c #AA9488",
"kX c #91AB90",
"lX c #A6B683",
"zX c #B0A593",
"xX c #8D94AC",
"cX c #97B0A0",
"vX c #ADAEB4",
"bX c #CD8F89",
"nX c #CB9786",
"mX c #D79A89",
"MX c #D0A293",
"NX c #DAA492",
"BX c #E8AA99",
"VX c #CEB6AC",
"CX c #EDB0AA",
"ZX c #84CAAB",
"AX c #B4C6AA",
"SX c #CED8B1",
"DX c #8DAEC8",
"FX c #94CAD7",
"GX c #A7CDE1",
"HX c #A9DEE4",
"JX c #D5D1C8",
"KX c #E1DED0",
"LX c #D6E5EA",
"PX c #E9EFE9",
"IX c #F9FAF9",
/* pixels */
"                                                                                                                                ",
"                                                                                                                                ",
"                                                              . X .                                                             ",
"                                                      .   . . * $X-Xl                                                           ",
"                                                + l X.;X;X8XxXxXDX;X;Xk X .                                                     ",
"                                            = T wXDXGXLXLXLXPXIXIXIXIXLXvX;X1 X                                                 ",
"                                        + T wXFXGXHXPXPXKXSXKXPXIXPXJXJXIXIXLX@.l = X                                           ",
"                                      * XXqXsXFXHXHXPXKXSXzXjXCXKXJXMXv.zXPXPX@.Y &X&X<                                         ",
"                                    * &XqXqXqXdXHXGXJXxX:X:X:XJ.J.bXbXc.$.jXVX) S X.wXhXz o .                                   ",
"                                  X $X@XiXiX@XsXDXvX;X|.#X|.,XvX].bXH.H.y.b.MXx ( { l.H.c.X.X                                   ",
"                                  k XX+XiXiXiXiXvXAXX.( 6.M J.[.`.hXc.=.&.H.jXl ( { d.4.,.M.) o                                 ",
"                                . T &XY +XiXoXiX9XwX) 7.>.M 8.,.5.{.-Xc m *.r 1 J Y v./.[.S.X.<                                 ",
"                                + -XwXC oXaX2X2X2X+X@.-.>.*.M 8.-.a.m d g f 4 , G G ;XQ.MXjXX.T +                               ",
"                                k *X8Xl ! tX3X2XoX+X' ;.>.-.b b b d = - j XXc f G G 5X! Q 8XhX-Xx                               ",
"                                T ;X9Xl C wX<XoXOXQ ) M :.-.x v c = - - * c v d G C +XI N Q @.@.$X@                             ",
"                              @ $X#.9XQ C 7XOX~ O.~ R T r M } ) l > % - 5 4 f c b C +XI N Q ) @.%XT                             ",
"                              k %XW 5X#.B @.#.O.O.U.~ oXZ l , y 8 r $ 4 %.%.9 v j C OXZ V H H Q .X$XX                           ",
"                              T %XL Y.#.A +.p. .+.+.~ ~ W < = > 9 4 4 *.:.%.m v d C ! V V B B H T =X+                           ",
"                              $XXXH U.+.t p 1.9. .+./ +X#.; g k n b k r :.%.4 v g C U N V V V h T -X*                           ",
"                            X =XXXJ R.p.r 1.,.9.+.U.~ W ! B l g |.v k 0 =.%.r n j I P N Z V V C  X-X<                           ",
"                            * =XXXx i.1.5.E.<.[ Q ~ E oXR C I g d c l 0 &.-.v.$.B I P h V V V H  X=X<                           ",
"                            = >XXXx <.E.E.3.| Q R E E E P C Y G ; = g m &.;.b._ C I P h V V B j  X=X<                           ",
"                            l @XXXT W.E.3.i.U.~ oX2XoXU U U ! H C d d 9 %.*.<.( B R Z h N N C C  X=Xl                           ",
"                            z @XXXT W.5.i.$.5X<X2X2XoXOXOXY ^ H W S 9 w %.3 r $.H R V h B N G b  X=Xl                           ",
"                            = >X@X$X3.4.j. .Y.4X1XP.P.W W L U.Q Q ' *.] ;.e e $.L ~ K N Z N A G  X=Xk                           ",
"                            ; 3X3X-Xs.H.j. .T.) J L { L L t F ( ) ' *.] Q.[  .Y.L P.P.Z K K D T  X.X<                           ",
"                          1 qXaXpXaX7X8X$.@.T.$. .} a a } { [ [ [ } -.<. . .$.+.U.U.L K K t D T T  X<                           ",
"                        X rXfXfXfXfXsXaXaXtXrXrX0XY.T.T.I.} I.I.I.} <.2.a | | | | a [ [ F { L Y ! ~ H                           ",
"                        X 5XtXtXsXaXaXsXqX7XeXZXuXrX0XZXR.U.6XU.O.U.T.T. .[ +.R.R.T.Q o.U.U.P.1X1X6XU.-                         ",
"                          1 #.4X6X7X7XqX7X7X9X9X0XAXAXlXcXcXcXkXkXkXcXkX0XR.8XR.0X6XeXeXqXqX3X3XtXrXrXF                         ",
"                            @ A Q ^ #.#.4X4X5X$.$._.}._.)._.lX).).Q._.kXlXlXlXlX).).kXZXuXeXaXeXsXgXuXH                         ",
"                              @ 0 $. .( ( D J ) +.$.T.R.#.U.*X5X4X5XY.U.0XZXZXyXyXyXyX0X0XeXeXeXqX7X^ @                         ",
"                            % n._ ^.^.p.' 0 : , : : , 1 t A A D A H H J L Y.Y.Y.Y.Y./ L Q L Q o.F 1 X                           ",
"                            7 '.d.(.C.g.p.] a u y 6 6 6 6 0 q u q 0 0 2 2 2 2 2 2 1 : : , ( ....u : .                           ",
"                            6 j.g.{.!.g.g.p.] i 6 > & > 6 w u i i q q 8 7 6 7 5 6 6 0 u _ ..p.^...d.>                           ",
"                            > k.b.{.!.x.d.i.i > > @ O # & 7 w i w q 7 7 5 $ % # # & 6 ] ..p.p.^.p.i.@                           ",
"                            # M.C.{.~.C.x.a.] p u % @ > $ 5 8 e w 7 7 7 5 & % O + , > 7 ] q...^.a.0.O                           ",
"                            X l.~.nX~.A.C.x.f.i.s i 8 7 5 8 w e i e 8 6 5 > & % % 6 q u s | d.b.f.w                             ",
"                            X m.].{.{.!.!.A.l.a.e.] ` ` _ p p ` 7.p p u 8 8 7 8 w i a ] q.a.b.^.a.O                             ",
"                            @ bXNX{.{.].].F.n.s.d.s.a.0.9.9.7.9.7.9.p p i i i i i p ` ] a.g.^./.q..                             ",
"                            > BXBXmX[.mX{.'.F.M.M.k.m.n.k.h.r.w.0.7.9.` ] 9.7.9.9.q.e.d.B.C.^./.`                               ",
"                            : CXBXNXNXmXmX[.].K.K.N.N.N.M.n.M.m.h.0.w.0.9.r.s.s.r.s.h.z.V.C././.w                               ",
"                            6 CXBXNXNXNXmXbX].].K.K.K.S.k.S.L.S.M.k.s.r.9.r.m.M.m.z.m.V.V.G./.G.>                               ",
"                            % F.].NXBXmXmX].[.].L.K.N.y.k.S.S.K.K.S.h.s.r.r.z.Z.M.M.m.Z.V.^./.G.>                               ",
"                              @ u MXNXNX[.].].L.S.N.M.m.y.y.<.r.k.h.w.7.w.0.z.M.M.V.V.Z.V.G.jXb.@                               ",
"                                : mXNXmXbX[.].L.N.m.M.N.N.w.7.7.7.7.` r 7.r.z.V.Z.M.Z.Z.V.D.b.:                                 ",
"                                @ jXNXnX].].].L.S.S.M.S.S.S.m.y.w.7.9.q.0.h.z.M.V.m.m.n.V.G.p.X                                 ",
"                                X ^.mXnX].].F.F.Z.M.S.S.S.m.m.k.k.h.r.e.e.s.h.z.z.z.n.V.C.^.'                                   ",
"                                . v.nX]./.F.A.A.M.j.l.z.y.t.t.t.u.u.w.w.e.i.0.j.s.s.l.n.C.^.(                                   ",
"                                  ..{.].D.A.V.Z.z.0.p 8 4 4 4 4 4 4 $ $ > 7 p 9.0.s.d.b.C.C.6                                   ",
"                                  ( (.~.D.D.D.Z.s.w .                       O u 0.i.f.n.b.b.#                                   ",
"                                  @ C.^.D.D.~.A.j.8                           5 i.l.n.B.C.' .                                   ",
"                                    _ !.A.A.!.A.!.i.# . o o . . . . . . . . o e l.l.x.b.C.2                                     ",
"                                    % b.!.!.A.A.~.'.x.<.8.8.8.;.;.r r r r p s s.h.f.g.C...O                                     ",
"                                    . u b.C.C.A.!.'.'.~.N.u.u.u.u.t.y.y.s.l.l.l.f.f.b.b.:                                       ",
"                                      O ] x.B.C.!.'.~.'.~.A.S.k.k.k.z.z.x.l.l.f.g.f.g.y                                         ",
"                                        # q.B.x.!.~.'.~.~.F.'.K.S.S.Z.z.z.l.f.f.a.g.u                                           ",
"                                          @ p g.x.!.~.'.'.'.K.~.S.Z.Z.z.z.l.f.f.p.u X                                           ",
"                                            o u p.C.A.D.F.F.S.Z.m.m.z.h.l.f.d.] > .                                             ",
"                                                # u a.V.n.V.z.f.h.s.s.a.i.] 0 O                                                 ",
"                                                    @ > q ` 9.9.] i u > # O                                                     ",
"                                                          . O @ O .                                                             ",
"                                                                                                                                ",
"                                                                                                                                "
};
