/* XPM */
static char *result[] = {
/* columns rows colors chars-per-pixel */
"64 64 256 2 ",
"   c #000000",
".  c #0C0C0C",
"X  c #07080A",
"o  c #0E0E13",
"O  c #181516",
"+  c #111110",
"@  c #2A1D1A",
"#  c #351F1C",
"$  c #36261E",
"%  c #29201C",
"&  c #171C26",
"*  c #17193A",
"=  c #1B2328",
"-  c #1C2536",
";  c #07393E",
":  c #1B3439",
">  c #292724",
",  c #382A26",
"<  c #362939",
"1  c #283339",
"2  c #31332D",
"3  c #3D1E22",
"4  c #51192E",
"5  c #721A24",
"6  c #432C25",
"7  c #4C332B",
"8  c #46332B",
"9  c #54362C",
"0  c #483833",
"q  c #5C3C33",
"w  c #573A33",
"e  c #522C35",
"r  c #663C35",
"t  c #772F35",
"y  c #6A211D",
"u  c #28433B",
"i  c #3F543D",
"p  c #58433A",
"a  c #415F3B",
"s  c #69463B",
"d  c #74483C",
"f  c #6B5738",
"g  c #58643F",
"h  c #756734",
"j  c #15184E",
"k  c #241F5A",
"l  c #053C46",
"z  c #172256",
"x  c #162F49",
"c  c #253447",
"v  c #2A3252",
"b  c #1A1D66",
"n  c #172565",
"m  c #163177",
"M  c #24386D",
"N  c #702E51",
"B  c #562957",
"V  c #16444C",
"C  c #094855",
"Z  c #184855",
"A  c #0F504F",
"S  c #2A4649",
"D  c #344847",
"F  c #254754",
"G  c #2A5758",
"H  c #395856",
"J  c #364F50",
"K  c #16624A",
"L  c #356556",
"P  c #165A6A",
"I  c #0F566A",
"U  c #394467",
"Y  c #255862",
"T  c #2E4A75",
"R  c #176675",
"E  c #0F6778",
"W  c #397469",
"Q  c #2F6E72",
"!  c #51544E",
"~  c #674C44",
"^  c #784C42",
"/  c #795749",
"(  c #6B5352",
")  c #516D55",
"_  c #7A6556",
"`  c #6C6C51",
"'  c #4A5775",
"]  c #466A68",
"[  c #487B6C",
"{  c #497A77",
"}  c #54716B",
"|  c #6D746B",
" . c #625F64",
".. c #8B151D",
"X. c #A70918",
"o. c #BC071D",
"O. c #931C27",
"+. c #8D2F33",
"@. c #B92836",
"#. c #C7021A",
"$. c #E43832",
"%. c #DA141E",
"&. c #874538",
"*. c #904C34",
"=. c #AE4D32",
"-. c #BB702A",
";. c #96663B",
":. c #CB5B2C",
">. c #913B48",
",. c #AA3742",
"<. c #C42045",
"1. c #844E46",
"2. c #9A494A",
"3. c #8C544A",
"4. c #8C5A4C",
"5. c #865548",
"6. c #95584C",
"7. c #895952",
"8. c #975D53",
"9. c #A75A56",
"0. c #AF5354",
"q. c #97624E",
"w. c #876655",
"e. c #9B6353",
"r. c #9C6B55",
"t. c #9C6C59",
"y. c #966756",
"u. c #9C705C",
"i. c #A5655B",
"p. c #A46C5B",
"a. c #AC6C5D",
"s. c #A46656",
"d. c #B2685D",
"f. c #A8725E",
"g. c #AA6D49",
"h. c #9D7A67",
"j. c #8B7066",
"k. c #AC6E62",
"l. c #A96C64",
"z. c #B26D63",
"x. c #B66A64",
"c. c #A37363",
"v. c #AD7464",
"b. c #AD7C6A",
"n. c #A97B67",
"m. c #B27264",
"M. c #B37C65",
"N. c #BB746A",
"B. c #BB7B6A",
"V. c #B77768",
"C. c #B07D73",
"Z. c #AB4461",
"A. c #D55244",
"S. c #C27D6E",
"D. c #C9736C",
"F. c #C57B72",
"G. c #EC535D",
"H. c #338572",
"J. c #708A4D",
"K. c #47847C",
"L. c #538E74",
"P. c #678666",
"I. c #6C8A76",
"U. c #DC9A35",
"Y. c #8D8A76",
"T. c #BC826C",
"R. c #B5816A",
"E. c #A98474",
"W. c #B88777",
"Q. c #AF8B72",
"!. c #9CA678",
"~. c #ACB078",
"^. c #A49E5D",
"/. c #C4846D",
"(. c #C8877A",
"). c #C9917E",
"_. c #D9B55A",
"`. c #E0D05E",
"'. c #17328B",
"]. c #334C88",
"[. c #31508D",
"{. c #026882",
"}. c #10778C",
"|. c #347783",
" X c #2B728D",
".X c #3D57AC",
"XX c #1966A4",
"oX c #445987",
"OX c #4B5594",
"+X c #4D6893",
"@X c #6E7692",
"#X c #5472A2",
"$X c #4C67AE",
"%X c #5C71AB",
"&X c #623897",
"*X c #837BA9",
"=X c #148399",
"-X c #329093",
";X c #108BAE",
":X c #3693A9",
">X c #3AA0B3",
",X c #4A8787",
"<X c #548789",
"1X c #57989B",
"2X c #4C8E94",
"3X c #628888",
"4X c #6C8F8B",
"5X c #6EAA93",
"6X c #4D90A9",
"7X c #768EAE",
"8X c #57A7A6",
"9X c #4DAAB6",
"0X c #5AB1B4",
"qX c #6FB4B1",
"wX c #7ECBA9",
"eX c #7FC6B3",
"rX c #0A8EC5",
"tX c #3BAFC5",
"yX c #2895D1",
"uX c #47ABC8",
"iX c #50AFC8",
"pX c #6CB5C8",
"aX c #5D95C8",
"sX c #55C6D7",
"dX c #6DC7C6",
"fX c #6CDFE7",
"gX c #8A8E8D",
"hX c #BB9588",
"jX c #BD8499",
"kX c #95AD92",
"lX c #ACAC8E",
"zX c #8D9BB3",
"xX c #93B0A7",
"cX c #ACA1B3",
"vX c #D08F80",
"bX c #CA9685",
"nX c #D89A89",
"mX c #D79993",
"MX c #DEA693",
"NX c #D1A08F",
"BX c #EAA996",
"VX c #F4B5A9",
"CX c #D4ACA0",
"ZX c #85D0AA",
"AX c #B8C9A2",
"SX c #C8D0BF",
"DX c #E1D6B1",
"FX c #99B5D4",
"GX c #8FD1D1",
"HX c #ACD4E9",
"JX c #A1DAE5",
"KX c #CFCCCD",
"LX c #FFFFFE",
"PX c #F4F9FC",
"IX c #E9F1EE",
"UX c #D9E7E6",
/* pixels */
"                                                                                                                                ",
"                                                                                                                                ",
"                                                                                                                                ",
"                                                                                                                                ",
"                                                                                                                                ",
"                                                                                                                                ",
"                                                                                                                                ",
"                                                                                                                                ",
"                                                                                                                                ",
"                                                                                                                                ",
"                                                                                                                                ",
"                                                                                                                                ",
"                                                                        X                                                       ",
"                                                                                                                                ",
"                                              X                     + ] ]               X                                       ",
"                                          X             X . + X     ] dXfXQ   X O .                                             ",
"                                X       6 MXmXbX(./ ^ q.a.9./.b.  1 2XqXsXuX X.X$X+X+XT U c = X                                 ",
"                                      X ^ BXVXVXVX)./.M.r.q.y./ 2 H 2XdXsXuXyX.X[..X.X$X$X$X$XOXv & X                           ",
"                          X 2 p _ j.E.hXNXnXMXmXNX).).).bXbXW.E._ W 1XuXsXtX+X[.'.M M v F F P Y @XOXoXM -                       ",
"                      . p n.bXNXMXBXBXMXMXMXMXNX).).W./.R.R.E.Q.| Q 6X9XsX1Xg.;.^.q.&.J.L.H.L.5XcXgXzX6XOX' +                   ",
"                    8 h.W.W.R.T.(.vXnXmXNXnXMXnX).T.R.f.f.f.u.r.! { 8XiXtX*X:.$.-.`.-.=.P.4X3X} F V v Z R $X#Xo                 ",
"                . / R.R.b.b.R.B.(.(.).vXnXnXnXvX(.T.R.f.u.u.u.w.! K.1X9XuX| =.s.=.-.U.+.8 1 ; ; V Z }.-XrXrX6X[.                ",
"                / R.n.b.V.B.M.M.B.(.vX(.(.vXvX(./.R.R.r.w.w./ 0 D 1X<X1XeX! ` | j.*.U.U.+.` } 1XqXqXiXrXrXrX8XaXU               ",
"              s n.c.v.b.T.R.M.M.V.W.(.(.F.(.(.S.f.r.r.5.s / f % J 3X3X0X0XJ.P.4XK.} h =.@.e.I.Q }.:XrXXXrX;X#XiXaXo             ",
"            6 f.u.f.M.R.M.M.M.m.V.B.F./.F.(.(.N.t.y.e./ $ s s > H | 4XGXxX~ L -X=XR W ~ *.` } W }.}.;X;X;XpXFXJXJXU             ",
"          . y.n.R.R.R.R.M.q.q.d.k.m.V.N.S.S.D.x.p.7.5.~ 2 $ p % K.j.qXdX5Xf L -X;X{.W L.` ) [ H.H.=X;X+XCXpXJXUXJX7XX           ",
"          7 b.M.T.T././.V.q.d 6.k.z.x.d.x.D.N.z.p.7.s > . % p > P.`.SX6XL.` W -X;XE E Q K.} K.H.H  .XX1XCXSXGXZXJXFX-           ",
"          w.R.T.T.T.T./.N.g.r 4.a.m.z.d.x.N.N.z.t.1.r @ X % 7 = P.`.lX8X` f ) =X;XE {.Q Q W Q =XP ( / ! F %XSXLXPXHXU   X       ",
"        O a.V.W./.T.S.B.B.0.>.v.z.V.N.x.i.i.N.z.8./ 9 6 > $ 6 > I.Q.kXZXJ.f L Q  XI E }.{ -X=XR N O.o.,.~ '.%XDXUXIX+X          ",
"        , k.V./.T.R.B.S.d.0.>.9.V.V.N.9.9.x.i.k.8.^ 9 $ 3 7 7 u ,X~.xX[ J.g K Y P I I P L L F B #.%.%.%.,.M $XCXKXIX}           ",
"        w m.B./.M.V.N.a.9.0.+.>.x.l.x.1.d.F.V.l.6.d q 6 7 q 9 u K.~.xXK.h g D { Q R Y Z x * c q 1.5 N B Z.&X].hXDXIX@XX         ",
"        d p.M.B./.V.d.g.2.0.+.>.0.l.i.t 9.F.V.i.3.d r w r s p S ,X!.ZXK.J.) H +XT Y Y x x - > f M '.( ,.G.FX&XmXUXLX@X          ",
"        s e.f.B.S.N.d.6.2.Z.+.2.0.z.2.3.N.F.l.9.3.1.^ r s s p S ,X~.kXW J.p J L Y G x * n e 8 ) k m +.%.U.cX<.VXLXLXzXj         ",
"        w p.a.N.m.d.d.6.2.,.t 2.d.i.1.3.N.N.i.6.1.^ s w 9 p 9 S -X~.kXH.J.) } W G - * m XXe y < * b t U./.*XD.IXLXLX7XoX  X     ",
"        6 p.a.m.N.d.s.8.2.2.t 2.x.8.1.1.a.d.6.3.1.^ s 7 9 w 0 S K.!.xXI.*.*.O.t < j c z b c 5 6 & * ~ kX*XjXNXCXKXLX%X'         ",
"        @ y.s.f.a.a.i.e.6.2.t 2.8.8.1.r 6.8.8.4.^ d 9 8 8 w 0 S <X~.kXP.*...O.s < j S S 1 4 3 % & & * '.>.$.l.C.KXPX<           ",
"        . 5.t.p.f.f.p.p.q.2.t 6.y.w.1.t 8.8.7.1.^ q 6 6 7 7 8 S <X!.kXP.h Y.Y.+...O.O.O.O.#.o.4 & & j k o.G.`  .LXKX            ",
"          / f.s.g.f.f.p.e.3.r 8.8.9.9.4.6.7.6.4.d w 6 $ , 7 , L.wX~.I.) f ! _ 5 X.X.o.#.#.o.#...& ].M 4 #.^ | IXLX@X  X         ",
"          8 f.r.p.p.f.r.e.5.r 4.8.a.a.p.i.a.l.4.^ w $ , % 6 2 L.ZX~.L.) w.} p 9 4 4.Y.+.5 y 5 y b '.v ..NXDXVXPXPX1             ",
"          X _ u.r.p.p.q.r.q.s 4.s.a.a.v.V.z.a.3.d 9 6 + O 6 , L.wXlX4XJ.` I.I.j.w.r j.j.k m '.n j j 4 > F !  .zX7X              ",
"            , u.y.u.u.r.r.q.5.6.s.a.z.m.m.z.i.4.^ q , . O 7 2 L.wXkX5XP.J.) K.] L V S c z j z n v c F J D 1 u Z c               ",
"              p h.y.u.r.r.r.e.e.s.a.v.m.k.k.i.8.^ s 7 2 O e 2 L.wX~.2XP.f H.W R P P P Z Z V l x F Z Z J ! ` ] +X-               ",
"                ~ n.u.u.f.f.r.r.p.p.v.z.z.k.a.e./ f s 2 , q > W ZXlX8X] g H.H.R P I P P P Q  X|.|.<X{ I.w.r.7X#XX               ",
"                  p E.n.f.u.u.t.c.l.k.m.m.v.k.p.4.d f $ ~ s = G 5XkX9XL a K A ; ; ; l l C C C I R R gXhXA.A.zXc                 ",
"                    , j.C.b.h.h.h.l.l.V.v.m.m.v.y.w.f / _ / , G wXxX:X[ i K K A V A C C Z A A l l C lXnX$.Z.U                   ",
"                      X < w.E.W.W.W.W.E.C.b.b.b.n.y.w./ _ _ ~ G 8X9X9XK.J J K A ; C C C C C Z L Y 3XhXD.N.' X                   ",
"                      X X   O 0 ~ _ j.W.hXW.Q.E.E.u.t.w.w.u._ L 9XuX:XH.! J G Z V Z C C C V S ]  .gX] T ' o                     ",
"                                      0 E.C.(.hXW.Q.E.h.Y.E.h.H 9XtX:XH.G T T v v Z F F l Z L ] ' @XoXv                         ",
"                                        O @ 6 w ~ 7.c.e.w./ ~ D :XdXqX-XP ].].[.[.].].].].].[.+X+XU .                           ",
"                                                    @ 1.1.n.> o 8XGX0X2X|.oX[.#X$X#X#X#X#X+XoXU O                               ",
"                                                          @ X   L eXeXW 1 O & & & & O O + X                                     ",
"                                                                X = > X                         X                               ",
"                                                                                                                                ",
"                                                                    X                                                           ",
"                                                                                                                                ",
"                                                                                                                                ",
"                                                                                                                                ",
"                                                                                                                                ",
"                                                                                                                                ",
"                                                                                                                                ",
"                                                                                                                                ",
"                                                                                                                                ",
"                                                                                                                                ",
"                                                                                                                                "
};
