/* XPM */
static char *result[] = {
/* columns rows colors chars-per-pixel */
"64 64 254 2 ",
"   c #000000",
".  c #090807",
"X  c #04030B",
"o  c #08070E",
"O  c #0C0B0C",
"+  c #0F100D",
"@  c #13130E",
"#  c #181708",
"$  c #0D0C12",
"%  c #120F14",
"&  c #0E1514",
"*  c #131314",
"=  c #171917",
"-  c #1B1B14",
";  c #151519",
":  c #1B1B1C",
">  c #201D1A",
",  c #1D200D",
"<  c #1B251D",
"1  c #252516",
"2  c #292710",
"3  c #23231C",
"4  c #2B2A1D",
"5  c #38381B",
"6  c #1E1D21",
"7  c #1F2920",
"8  c #242424",
"9  c #282625",
"0  c #242B22",
"q  c #2B2A25",
"w  c #2C2C2B",
"e  c #362D24",
"r  c #2B3428",
"t  c #333123",
"y  c #393626",
"u  c #33332C",
"i  c #3C3B2C",
"p  c #302F32",
"a  c #343432",
"s  c #3A3B37",
"d  c #3B3C34",
"f  c #512C1E",
"g  c #453828",
"h  c #553329",
"j  c #583B28",
"k  c #463D33",
"l  c #653B25",
"z  c #6F3D32",
"x  c #364628",
"c  c #3F4138",
"v  c #45431E",
"b  c #44432C",
"n  c #494829",
"m  c #524E29",
"M  c #58552A",
"N  c #434334",
"B  c #4D4C33",
"V  c #44453C",
"C  c #494639",
"Z  c #4B4B3D",
"A  c #544B36",
"S  c #595637",
"D  c #54523C",
"F  c #6A462B",
"G  c #695429",
"H  c #684C37",
"J  c #645E37",
"K  c #75533A",
"L  c #576530",
"P  c #6A632D",
"I  c #676437",
"U  c #756B36",
"Y  c #727234",
"T  c #3D3C43",
"R  c #484747",
"E  c #4C4E43",
"W  c #544D45",
"Q  c #4F5045",
"!  c #525344",
"~  c #585846",
"^  c #54544A",
"/  c #5C5C4B",
"(  c #4C4C57",
")  c #5B5953",
"_  c #635C48",
"`  c #755945",
"'  c #625D53",
"]  c #5E614C",
"[  c #5E6051",
"{  c #62644D",
"}  c #696648",
"|  c #736D45",
" . c #787547",
".. c #636453",
"X. c #666952",
"o. c #6A6B54",
"O. c #676459",
"+. c #6B6C5C",
"@. c #716C54",
"#. c #756F5A",
"$. c #6E7159",
"%. c #747355",
"&. c #72745B",
"*. c #7B7658",
"=. c #767A5C",
"-. c #5B5B64",
";. c #5E6D60",
":. c #696766",
">. c #6C726C",
",. c #777665",
"<. c #7B7D63",
"1. c #777875",
"2. c #DC3E29",
"3. c #8F5029",
"4. c #875A3A",
"5. c #965A38",
"6. c #AC5337",
"7. c #88643A",
"8. c #9B6A39",
"9. c #817837",
"0. c #8E7832",
"q. c #A96A37",
"w. c #B56939",
"e. c #B9773A",
"r. c #D85037",
"t. c #E84639",
"y. c #D07838",
"u. c #8B5D42",
"i. c #B45549",
"p. c #866546",
"a. c #997747",
"s. c #91714C",
"d. c #857A59",
"f. c #AF724A",
"g. c #A9774A",
"h. c #B67A47",
"j. c #A67855",
"k. c #837D62",
"l. c #8F7B67",
"z. c #827C6C",
"x. c #C9584B",
"c. c #CD7050",
"v. c #E1685B",
"b. c #D87163",
"n. c #D97567",
"m. c #DA7E73",
"M. c #E3766A",
"N. c #E47B73",
"B. c #7F805D",
"V. c #7E8365",
"C. c #75867B",
"Z. c #8F8639",
"A. c #AD853C",
"S. c #CB8836",
"D. c #938D4C",
"F. c #88835B",
"G. c #99885B",
"H. c #BA8548",
"J. c #B0904F",
"K. c #A8865B",
"L. c #BA8C54",
"P. c #B2AA5D",
"I. c #838564",
"U. c #8A8866",
"Y. c #8B846A",
"T. c #868A6A",
"R. c #958A65",
"E. c #938D6A",
"W. c #95926B",
"Q. c #9B946B",
"!. c #8D8C72",
"~. c #9C9473",
"^. c #989876",
"/. c #A78869",
"(. c #B78F68",
"). c #A7976B",
"_. c #BA9A67",
"`. c #A39B75",
"'. c #A69B78",
"]. c #9FA076",
"[. c #B5A96C",
"{. c #AAA677",
"}. c #ABA37B",
"|. c #B7A979",
" X c #B4AC7C",
".X c #C8894A",
"XX c #D2894F",
"oX c #CA934C",
"OX c #D7994C",
"+X c #C48957",
"@X c #CA9556",
"#X c #D59955",
"$X c #E59743",
"%X c #DCA24C",
"&X c #D9A65A",
"*X c #E2A959",
"=X c #E7AF59",
"-X c #C59962",
";X c #CF936C",
":X c #D98879",
">X c #E2887D",
",X c #CAA467",
"<X c #D8A867",
"1X c #DBB26B",
"2X c #C7A978",
"3X c #D8AB74",
"4X c #C8B47C",
"5X c #DBB677",
"6X c #E3B466",
"7X c #E2B178",
"8X c #DAC17C",
"9X c #787781",
"0X c #888988",
"qX c #9B9888",
"wX c #8C8F90",
"eX c #969A99",
"rX c #AB9B89",
"tX c #A9A686",
"yX c #B5AB85",
"uX c #BCB483",
"iX c #B9B58A",
"pX c #B0AC95",
"aX c #B3AA99",
"sX c #9899A4",
"dX c #9DA4A3",
"fX c #A6AAA9",
"gX c #ABB2B2",
"hX c #B2B7B1",
"jX c #D6948B",
"kX c #E69189",
"lX c #E69C97",
"zX c #D2AA87",
"xX c #C6BA87",
"cX c #D9BA86",
"vX c #DCA29D",
"bX c #C2BA94",
"nX c #E3BE84",
"mX c #E4A19B",
"MX c #DAB0AC",
"NX c #E0A9A6",
"BX c #E6B2AB",
"VX c #E4BAB4",
"CX c #B9C1BE",
"ZX c #CBC18A",
"AX c #D7C58C",
"SX c #CAC394",
"DX c #D9C992",
"FX c #E5C489",
"GX c #E3C997",
"HX c #D5C5AF",
"JX c #E1C2BF",
"KX c #BFC5C1",
"LX c #C9CBC9",
"PX c #E4C0C1",
/* pixels */
"                                                              . O . .       . . O O                                             ",
"                                                        @ - @ d Z 4 # # # # 2 A } D u 9 @ .                                     ",
"                                              X . - q 5 4 y # , 4 , - , , 2 5 n M m S | J _ N - .                               ",
"                                          . q i t y 1 1 , 5 y 4 b m M M P I P M _ P U U U U U } A 4 O                           ",
"                                      . 3 B A x 2 2 y S m b B 4 3 8 4 y y i d d d C J  .G.D.9.P P J W 3 .                       ",
"                                    q / I v g m I S b 3 < V ^ w X X < &.] <.+.+.= s V u i g | D.D.P M J b *                     ",
"                                @ b } J M I } ~ q * s d : T.<.u X X c V.{ I.&.! d V./ =.u w V i m  .9.P M S 0 .                 ",
"                              q A J G U  .S t i = = ~ =.t T.~ a $ X Z B.B.=.=.N X.o.~ $.q &.,./ : : n U Y M D i O               ",
"                            t } m P F.} Z k ; o.X.o.<.U.c ~ D R ; * 9 r s 9 w 9 E k +.E o.<./ ..Z c w 3 M Y S J C O             ",
"                        O i m v U %.B k E =.d N I.{ _ R q : 8 s 9 w w 6 a 8 w w 9 6 9 9 Q 8 6 o.D R ..6 ; b  .I S t             ",
"                      @ N n n | J q 8 V.<.! %.V C u w 8 s ; O : * $ $ 8 : o $ 6 8 0 s p 8 o 6 &.c ] / a R > w } I B -           ",
"                    . N m 5 P b u ! r V T.~ V u ; a a & o ; & * : w 6 s 6 X X : R p d w a w * d ! Z u ^ I.Q $ 8 | I N +         ",
"                    4 n 5 J 5 q / ~ =.~ E s r d * % X X $ a d c s p : 6 w s 6 $ s ^ I.V o 9 8 6 o q $.] w s s 6 y I S 4         ",
"                  4 n g I t ; d V.] C N : 9 w 9 0 8 ; E E d u c :.Q V ! ] V : X o & Z E & X $ o X : V r V &.$.8 O t I n @       ",
"                @ b 5 L i : k a u $.R ; 8 a d Q E ; ; ^ [ $.^ $.^ s 9 8 6 8 6 & $ X X 8 p 6 % $ X X $ ! =.$.k ; ; ; M } y       ",
"              . b x n g : ) T.T.a : ; : * 3 %.Q 6 X o 9 a V c r * % w w w X.) ) R X X X $ 8 s a : o X > Z &...+.V % t | S O     ",
"              - B n m : d V d ! ^ o $ & X q ] ; X 8 r c ^ ,.$.E a d ^ $.E Q E s 8 X X X X X * E <.W & X t &.o.R 8 $ ; S  .-     ",
"              i g m 3 q $.D X : 9 o X X ; a : X X 8 V V Z ..^ c 0 0 Q $.V d s p 9 d 9 & X X X $ V { 6 $ : q : 8 8 ; = x | c     ",
"            @ b v 5 * ! T.%.r $ X X X * a : X X X $ r r c Z c o.$.] B.T.V.~ $.+.T.tX^.$.w X o < 3 > w ^ E u d ^ o.B.&. .D.D     ",
"            q g n - : a V X.&.: X X 8 d : X X X o 6 ^ V.!.V.X.T.T.X.] X.T.T.$.o.^.^.T.I.^ u V { X.o.%.%.*.T.F.E.].tXiXD.Y B     ",
"          . y b n O a a r ..Z o X c ] : X X X 9 ] =.] T.iX=.Z X.&.,.o.X.=.,.{ { $.$.B.F.R.).{. X/.p.} s.l./.s.l.~ N W P Z.B     ",
"          . x n 4 ; V =.!.X.q X u V.d X X . V ^. X^.] V.^.B.] ] ..] $.I.*.@.G.P.P.,X,X#X#XFXGXlXm.x.m.vXm.M.c.i.H ' g 1 Y S     ",
"          @ i M @ ; ^ V.!.&.6 X u N * 8 ; ; o.V.=.=.$.$.$. .F.K._.xXxX1Xj.j +X,X&X*X=XoX3X:X>XlXVXvXNXlXlX>Xn.6.j.:Xj.1 S S     ",
"          < B n + X $ : 9 u = r E c t ! / o.I.F.G.d.F.P.@X&X&X.XOXFXGX1Xa.j L.&X&X%XOX<XzXn.kXBXlXM.b.t.v.m.NXkXx.x.n.F A D     ",
"          3 b # . + 0 r d [ ..%.V.W.R.S J R.3X1X1Xa.d.,X*X=X=XoX&XFXFX5X7.A +XOX#XOX#X7Xm.lX:XM.t.r.+Xr.r.v.MXVX>Xv.+Xu.d.!     ",
"          3 B 2 D X.T.^.W.R.Q.,XcXDX2Xj > d.cX6X6XL.p.,X1X6X=X@X*XnXFX#XF p.,X&X*XXX5X3XN.BXjXv.c.;XxX|.c.c.vXJXkXM.h.7.).:..   ",
"          1 M P ).tXW.%.9.8.q.oX6XFXGXJ.g g |.1X6X&Xp.(.cX#X*X.XOX7X8Xw.h j.,X3X<X<XcXN.kXBXM.r.c.|.pXyX;Xm.MXPXb.w.f.4.~.wX;   ",
"          # M 0.D.~ D U H.S.S.oXOX1XGXDXg.f ` -X&X*XL.l.xX;X3X_.<X6X7X5.j h.XX#X*X<Xj.s.N.mXkXt.2.:X:Xc.b.v.vXvXx.6.q.a.aXwX:   ",
"          . M Z.5 4 D.oX#X&X$X%XOX#XnXGX<X3.f ).1X&X;XwXaXrXaXbXbXaX2XK K @XXX@X.X.Xl z x.jXNXmXv.v.t.t.m.jXMXb.6.q.8.).eXwX6 X ",
"            b | , L D._.cX7X=X*X=X#X&XGXAXc.h ` _.,XaXqXd.a.K.4.j.rXaX' p.L.c.h.e.6.K (.;Xn.VXLXJXJXmXBXVXmXn.i.6.f.G.qXwXwX;   ",
"            3 Z 5 L L  .xXFX5X6X%X%X#X3XnX3X4.g ~.aXl.H a.&XoXq.y.h.l.eXR.h.e.3.y.5.rXjXkXlXMXvXkXkXN.kXm.i.6.e.w.g.yXqX0XsX:   ",
"            O D n L L x s.2X3X<X=X=X&X<X7X5Xj.g 1.rXj.4.K #XJ.9.D.e.K 0XR.J.7.G F 4.jXx.b.zXn.f.r.r.x.c.i.y.e.w.8.).rX1.wXwX;   ",
"              d Y M m 5 e 7.-X<X,X&X*X<X<X7X(.` 0X}.+Xg.g Z.L x A F N wX..x x x q j j h 5.XXc.6.q.g.(..X6.w.h.h._.pX~.1.dX:.X X ",
"              * $.7.3.8.K H p.g.+X<X&X<X&X&XOXh.eX'.-XD.n L B 7 e y ^ eXc < 7 < < 8 > l q.6.5.f.+X+Xi.3.3.;X-X,XbX^.z.0XfXR   X ",
"              . o.).A.$X-X@Xa.A K L.;XXX#X#X.Xh.fXrXG.Y L B r r 9 R 0X1.w 7 < & % : 9 l z 4.h.h.u.u.8.h.XX3X2XxX}.>.-.sXsX=     ",
"              . R aX2X,XcXFX5X_.F l 4.H.oX.X.XK.fXgXfX^.>.;.^ ^ :.eXeXc < 0 < $ o O : e F s.4.K j.c.<X$XOX2XxX}.:.( 1.sX-..     ",
"                9 eXhX-X-X5XnXFX@X4.f H h.+X.X/.fXhXCXKXKXCXCXgXgXfX;.x r < * o $ O < t g 4./.-X;Xc.c..X2XAX~.k.:.( sXdXr       ",
"                & >.fXiXP.H.&X<X1X1XK.F m 7.-X(.gXLXKXgXgXCXLXCXgX1.x 0 0 i < < = % = t s.#XOXy.6.i.(.|.SX X~.!.-.( sX1.%       ",
"                  R dXrXiX2XJ..X&X6X1X@XU h 7.l.fXhXfXC.C.eXgXfXwXT & + < 4 0 & * $ $ % f 3.3.z I '.bXxX XI.W.+.( :.9Xu         ",
"                  6 0XwXeXbXxX/.L.OX&XOX.X8.F D dXeXeXC.;.eXdXeX( r < O & < 7 = % $ % o % e W z.iXSXxXQ.R.o.^ R ^ ' C .         ",
"                    ^ 0XwXrXpXbX}.K.h.e.H.9.J C wXeXdXdXeXdXdXC.< 7 7 & * * & & $ * & : _ '.xXAXxX|.}.}.k.) R ) k.~ +           ",
"                    : :.0X1.z.eXbXbXtXR.B.! b 4 ^ 0XdXgXdXwX$.r < 0 x 7 & o & * 6 c / Y.uXDXxX|.Q.}.'.,.R T R E.d.>             ",
"                    . a >.1.>.-.!.xXSXDXSXtX<.) V Q 1.T.B.B.L Y Y B.Z.L 0 q ! %.!.{.xXZX4X[.Q.`.E.X.*.Q R ' #.d.4               ",
"                      + W 1.9X-.z.yXyXpXiXZXSXHXtXtXtX{.P.P.P.P. XZX8X{.W. XZXZXAX4X4X{.Q.Q.{.`.<.! #.O.' d.d.1                 ",
"                        + u :.>.1.'.}.Y.tXiX~.yXyXuXDXZX4X|.|.uXuXxXZXDXZX|. XU.W.{.{.F.F.F.#.) Q W ' #.R.%.>                   ",
"                            9 ,.1.1.z.rXtX^.O.Y.k.U.xX XR.Q.Q.R.D.B.G.{.uXF.^ a d.{. X~.I.W.' s R ' d.W.*.3                     ",
"                              q *.#.+.,.:.^ T ,.+.#.E.U.E.Q.E.Y.Q.%. .F. X^.i k d.`. XE.z.#.' W #.Y.R.C O                       ",
"                              . 9 _ Y.1.O.( R ^ R Q ,.@.@.<.@.%.W.U.I.{.uX XF.E.{.W.^.,.Z ~ #.R.'.} 4                           ",
"                                  @ g *.F.#.O.' R ' #.' C / O.#.qXY.*.tXiXR.%.Y.O.*.@.@.*.R.~.d.g O                             ",
"                                      3 ! I.W.d.@.z.W ) ' ' ' W *.X.' k.qXO.k d.} Y.`.`.`.@.i +                                 ",
"                                        . - t _ R.}.).~.`.Y.` n W A H #.yX`.R.uX}.`.@.C > .                                     ",
"                                              . * q ^ #.,.'.`.W.~.~.`.'.'.d.#./ q ; .                                           ",
"                                                        . : q q 9 q 9 q > .                                                     ",
"                                                                                                                                ",
"                                                                                                                                ",
"                                                                                                                                ",
"                                                                                                                                ",
"                                                                                                                                ",
"                                                                                                                                ",
"                                                                                                                                ",
"                                                                                                                                ",
"                                                                                                                                ",
"                                                                                                                                ",
"                                                                                                                                "
};
