/* XPM */
static char *result[] = {
/* columns rows colors chars-per-pixel */
"64 64 255 2 ",
"   c #000000",
".  c #090907",
"X  c #04030B",
"o  c #08070E",
"O  c #0B0B0C",
"+  c #17160D",
"@  c #0D0C12",
"#  c #110F13",
"$  c #0F1010",
"%  c #141415",
"&  c #1C1C15",
"*  c #161519",
"=  c #181918",
"-  c #1B1B1B",
";  c #201F0D",
":  c #221D19",
">  c #1C261A",
",  c #1D231E",
"<  c #282811",
"1  c #272618",
"2  c #23221C",
"3  c #33281B",
"4  c #37391B",
"5  c #1E1E21",
"6  c #1E2C23",
"7  c #242423",
"8  c #252925",
"9  c #2C2B25",
"0  c #2C2C2A",
"q  c #322D24",
"w  c #2A3529",
"e  c #333323",
"r  c #393A25",
"t  c #32332C",
"y  c #3A352B",
"u  c #3B3A2B",
"i  c #2E2D31",
"p  c #343433",
"a  c #3C3C33",
"s  c #3A3A39",
"d  c #4E341E",
"f  c #733C1E",
"g  c #463827",
"h  c #483529",
"j  c #583927",
"k  c #37451B",
"l  c #3C4130",
"z  c #47431A",
"x  c #464528",
"c  c #4A4B2C",
"v  c #544929",
"b  c #485628",
"n  c #59552A",
"m  c #444334",
"M  c #4C4B35",
"N  c #44453B",
"B  c #494638",
"V  c #4B4C3C",
"C  c #584B36",
"Z  c #4C5435",
"A  c #545434",
"S  c #54533C",
"D  c #5B5738",
"F  c #6C462C",
"G  c #625B2D",
"H  c #654835",
"J  c #764835",
"K  c #645C38",
"L  c #765439",
"P  c #516530",
"I  c #6A632D",
"U  c #686437",
"Y  c #716B31",
"T  c #7A763C",
"R  c #3F3E45",
"E  c #474846",
"W  c #4C4C44",
"Q  c #534C44",
"!  c #4E5343",
"~  c #535544",
"^  c #575647",
"/  c #5C5B46",
"(  c #5B5C4B",
")  c #4E4C55",
"_  c #4E5B51",
"`  c #585855",
"'  c #645B44",
"]  c #6B5D52",
"[  c #5D6147",
"{  c #5E614C",
"}  c #5C6256",
"|  c #62624D",
" . c #696749",
".. c #746C4A",
"X. c #7A7548",
"o. c #646452",
"O. c #6B6554",
"+. c #6A6C54",
"@. c #686858",
"#. c #726C53",
"$. c #746D57",
"%. c #6D7256",
"&. c #757356",
"*. c #7C7557",
"=. c #73745B",
"-. c #75795C",
";. c #7C7B5D",
":. c #595864",
">. c #625F6D",
",. c #686967",
"<. c #6C6C6B",
"1. c #787667",
"2. c #7B7C63",
"3. c #787779",
"4. c #DC3D27",
"5. c #87531D",
"6. c #8F532E",
"7. c #885836",
"8. c #AC5735",
"9. c #976A2F",
"0. c #8A633C",
"q. c #9A653B",
"w. c #887B38",
"e. c #A96639",
"r. c #B5703B",
"t. c #CA4C39",
"y. c #D85C3C",
"u. c #8E5D46",
"i. c #A45643",
"p. c #886545",
"a. c #946D45",
"s. c #837A45",
"d. c #997546",
"f. c #886C53",
"g. c #887655",
"h. c #837C5D",
"j. c #947955",
"k. c #A76B44",
"l. c #AD6E4E",
"z. c #AA7745",
"x. c #B67947",
"c. c #837C66",
"v. c #997C6A",
"b. c #BB7E6B",
"n. c #D0594B",
"m. c #E75145",
"M. c #D76546",
"N. c #C87A48",
"B. c #D86958",
"V. c #D07150",
"C. c #E46557",
"Z. c #D77568",
"A. c #D9766A",
"S. c #E6756A",
"D. c #7E8265",
"F. c #79837B",
"G. c #9B853A",
"H. c #D48738",
"J. c #8B865D",
"K. c #958951",
"L. c #AA854C",
"P. c #BB8548",
"I. c #A88659",
"U. c #B88656",
"Y. c #AD9658",
"T. c #BB9A58",
"R. c #ADA55B",
"E. c #898768",
"W. c #938B67",
"Q. c #8D926E",
"!. c #9B9366",
"~. c #94926C",
"^. c #9C936B",
"/. c #888676",
"(. c #958C77",
"). c #999775",
"_. c #A68766",
"`. c #B78B61",
"'. c #A6976B",
"]. c #B49867",
"[. c #A69B76",
"{. c #B89775",
"}. c #9BA26B",
"|. c #9CA279",
" X c #B4A86C",
".X c #ABA578",
"XX c #B6A979",
"oX c #C88946",
"OX c #D58C4A",
"+X c #C9934B",
"@X c #D5994D",
"#X c #C98E59",
"$X c #DA8753",
"%X c #CA9354",
"&X c #CA9959",
"*X c #D49956",
"=X c #E09B48",
"-X c #DBA658",
";X c #DDB15F",
":X c #E3AE57",
">X c #E4AA59",
",X c #D08A6A",
"<X c #C79A65",
"1X c #D49A62",
"2X c #D98378",
"3X c #E38D78",
"4X c #C7A668",
"5X c #D8A866",
"6X c #DDB267",
"7X c #C8A875",
"8X c #D9A979",
"9X c #C4B57C",
"0X c #DCB879",
"qX c #E3B469",
"wX c #E3B773",
"eX c #D5C27D",
"rX c #7A7B83",
"tX c #7E8982",
"yX c #868887",
"uX c #888F8E",
"iX c #979588",
"pX c #8E9794",
"aX c #959997",
"sX c #A99A89",
"dX c #AFAB8A",
"fX c #B7AA84",
"gX c #BAB487",
"hX c #A8A498",
"jX c #9A9CA4",
"kX c #9DA6A3",
"lX c #A4AAA8",
"zX c #ADB1B0",
"xX c #B3BAB8",
"cX c #D98D83",
"vX c #DC9488",
"bX c #DB9D95",
"nX c #E2948B",
"mX c #CDA789",
"MX c #C5B987",
"NX c #DCBA85",
"BX c #DBA69D",
"VX c #C4BC95",
"CX c #E3B48D",
"ZX c #DCB2AF",
"AX c #E3ACA6",
"SX c #E5B8B1",
"DX c #D4C78D",
"FX c #CAC393",
"GX c #E5C992",
"HX c #E4CA98",
"JX c #D2C5A9",
"KX c #B4B7C1",
"LX c #BEC4C2",
"PX c #C3CAC8",
"IX c #E3CFC9",
/* pixels */
"                                                                                                                                ",
"                                                                                                                                ",
"                                                                                                                                ",
"                                                                                                                                ",
"                                                                                                                                ",
"                                                                                                                                ",
"                                          . & 2 . & u u 1 + + ; q l & . & &                                                     ",
"                                    O + 9 m M m ; & t e < & ; < 1 r & . 4 u e m & $ .                                           ",
"                              . & y S K g g 4 4 4 4 l V c c c c A m 4 4 4 < z c D D M 2 .                                       ",
"                          . 2 M  .K n n n I D D A 3 9 l m m t 0 9 9 < v A A U U n n K U D a O                                   ",
"                        & M K G G U s...D V q % * u , N -.{ -   X = m a t 2 a M ..s.T I Y ..C 2                                 ",
"                    . 9 S A n U s.#.S p 8 ~ ~ * , D.N N ~.V % X X V D.%.{ ~ W - 9 u U I.w.I I  .u O                             ",
"                  : B M d U X.K y N p %.W p -.V +.;.O.m ~.^ 0 o # %.| Q.{ D.t l +.m a t U K.K.I U M %                           ",
"                & M k z D D y 0 * ~ E.( D.g / / ~ a 7 - t i - O - t ( ' |  .a ;.M +.! $ 0 p K K.Y n D 2                         ",
"              & x 4 v U u 9 ! 2.~ 0 D.{ ( V 7 9 8 * 0 - = t - % t - 0 5 9 0 V ( ( E.8 V =.} 9 r w.T n D 1                       ",
"            2 x 4 D c & * ^ 2.{ 2.~ l t - i E i 0 % - O X @ O o $ @ , 0 i 0 0 - l W S =.{ +.u - 9 U K.v A 2                     ",
"          & x r U M = * t 0 @.-.V a 7 s 0 8 5 @ X O @ t 0 8 t 0 7 7 X o @ * 5 s s 0 a 8 - / o.{ W - v X.n S ,                   ",
"        O x x D m * 9 +.-.m 7 W 0 i s s p p 7 o $ W 5 , s 0 p p * @ @ o o - 0 p ) s # o t D.l ^ 2.5 % C T D V .                 ",
"        e 4 c x * a a a ~ V @ @ - 7 5 ! o.E - o % { N t u w a a 8 - N E * 5 W o.~ - 0 - 7 { o.2.^ ! V = U I c 2                 ",
"      O r v x % l | [ O * 8 O @ * X - 2.a @ o % % 0 p a V 0 - & & = p 5 X X @ ` D.0 o % * % t 0 W ;.1.5 : n n r O               ",
"      9 r v > O W D.-.9 @ X X X X O p 0 o X = N l E V l t - - & - * 9 p @ # X @ 1 & X X o X @ m +.N W i * e U c &               ",
"    % x x 3 # 9 = t S ! * X X # 8 8 * X X X = { { { V { ! ` } } ( } 2./.^ a @ X o @ 7 # X X X % 7 t } =.0 % v G x .             ",
"    9 c x % 2 ^ { V N - X O t ! s @ X X X o o - 7 a _ E W ` ,.} { t 8 0 8 0 o X X X , E 9 X X o V &.%.~ @ @ 2 K S 2             ",
"  . u x 1 O V D.).%.a @ # { =.0 o X X @ 5 0 a a +.+.+.D.)./.F.-.%.~ V / 0 7 - o X X o - S ~ * X * V %.V s 0 % v U 9             ",
"  O r x - X = 0 W ( 8 o 0 =.t X X X * { Q.|.%./ |.Q.%.S =.D.=.%.E.-.V 2.{ E.D.{ 8 X X X 7 2.^ O X a | =.+.i @ 4 D x .           ",
"  & M 4 O O 5 $ O - 0 s E 6 O @ * 7 t -.|.).D.-.Q.-.%.+.+.1.%.=.Q.-.@.2.D.|.gXgX%.- - 5 % 9 u @ X - 9 , - o o - ..A .           ",
"  &  .U P } +.| ( | @.=.&.K D C D O.O. .=.$.$.=.&.&.&.&.#.&.1.c.=.O./ Z S  .D.D.1.o.o.] N 7 9 9 2 2 7 , , 8 7 2 U c X           ",
"  + Y G..X.X).^.J.!.R.4XMXXXL.C K !.7X4X4X0.j.T.&X4XT.e.x.7X9X7XW.f.Y.]. X]. XR.I.T..X.X!.g.h.J.Q.).~.|.).iX|. .G A $           ",
"  & Y w.D M c s.x.r.r.@XwXHX4Xv : f.0XqXqXa.j.5X:X-X@XP.@XGXGXqXd.L <X8X6X:XqX@X&X0XCX8XZ.i.i.l.`.{.{.W.$.~.dX}.w.&.&           ",
"  + I z + n L.+X=XH.=X@X:XHXGXY.3 L 9X5XqXL.f.4X;X:X-X-X;X0XGXwXJ F <X1X-X-X@X*XNXbX2X3XvXAXbXnXA.Z.3X#Xj 9 m Y G.D .           ",
"  & A < k G.T.5XqX=X=X@X+X0XHX0XF h ].6X;X+Xg.XX4X-X;X-X-XDXwXx.j a.*X>X>X>X5X8X3X2XBXZXBXZ.n.nX2X2XZ.8.f.v.y < Y D .           ",
"  > ' r P I K.9XGXqX>X:X-XqXHXGXe.j g.5X@X&Xa.'.%X-X%X+X:XeX@Xf F 4X5X5X>X5X8X,XA.cXvXS.m.n.t.m.C.nXnXi.l.#Xp.1 X.m             ",
"  . S A k b A ].NXwX;X:X>X@X0XHX#XJ H <X*X7XsXhXhXgXsXXXNX0Xk.j L %X5X*X%XNXCXB.nXbX,XM.M.<X<Xy.M.2XBXcXn.V.v.g  .9             ",
"    a A b c 4 L <X5X5X-X:X5X%X0X8X7.v {.fXhX/.h.j.j.v.sXzXmXL H U.oXOX@X-X<Xb.m.bXAXC.N. XgXgX{.B.A.ZXBXA.Z.k.K E.9             ",
"    > *.5.9.v g 0.&X1X&X*X>X&X0XNXu.h 1.hXf.L z.+XoX9.k.{.hXO.f.U.%X%Xr.N.6.J n.nXvXm.4.#XmXmXb.S.AXIXvXB.x.9.g.(.7             ",
"    > ).e.H.+Xj...L z.&XOX-X-X&X0Xk.Q uX_.l.L q.-X+X9.H.x.(.aX].%X%XN.x.6.j u.n.S.AXnXn.B.n.B.B.S.BXIXB.n.x.0.[.aX0             ",
"    - aXXX&X7X6X&Xg.H T.5X5X*X&X@XoXv.aX].&XH F L.P n w.7./ iXI.x.e.q.e.J W.HX3XS.IXIXAX3XC.C.vXIXSX2Xt.e.e.I.hXyX0             ",
"    & aXhX X0X0XwX0X7.u.b.&X%X@XoXP.sXhX].Y.U b n w 9 v d ,./.U Y v j f u.bXIXIXbXBXAXAXSXSXSX3XbX2XB.e.e.q.sXjX<.%             ",
"    . <.hXgXT.&XwXDX&X7.j d.oX#X&XU.hXlX[.*.P Z e > : 9 W uX} w l k 8 g 6.] v.mX8XV.M.t.B.Z.Z.S.B.r.V.e.a.[.iXuX<.              ",
"      ` zXdXXXP.+X-X6X<X7.H a.1X1XY.kXxXxXhXF.} u e i _ uXF.0 > 6 , - : # 3 6.N.N.8.8.k.l.V.M.V.V.r.e.e. X).yXaX>.              ",
"      p aXaXdXMXL.oX-X5X4Xd.C p.<X{.zXPXxXxXPXxXaXtXpXkXpX_ 6 w , # @ @ : j 5.6.6.e.#X1X1XN.8.q.x.e.e.{.VXyXrXjXp               ",
"      - 3.iXaXVXfXI.P.@XwX&X0.v p.).xXLXxXkXxXPXPXxXxXpX_ l w > # o o @ # 3 F i.k.l.i.7.i.6.k.`.<XT. X.X(.yXpXrX*               ",
"      X ` rXc.jXJXgX_.z.OX@XoX7.d <.lXlXtX_ F.lXxXzXaXE > 6 6 ; % @ o > > 3 j L J L J 6.&X*X6X8X7XMXdX<.@.aXxX)                 ",
"        9 3.yXrXaXFXVX[.K.d.T Y g ,.pXaXtX,.,.aXkXaX_ > @ % r w 6 6 % * - k 0.q.x.1X1X$X$XOX*X7XVXgX3.) >.lXrX*                 ",
"        . ) /.3.>./.fXVXgX|.+.l 6 N pXkXzXlXpXkXuX_ w 6 # * 9 w 6 > * * # g N.OXoX8.8.r.#X7XMXVX).(.) :.lXjXi                   ",
"          & <.3.:.c.fX[.VXFXdXE._ w D.pXkXpXpXF.E 1 > > 5 % - 6 w * @ @ o & d j d H v.fXMXMXXX[.c.1.) >.KX,.o                   ",
"            i 1.,.1.gX.X/..XFXFXVX|.D.D.K.D.T P 4 w k 4 6 @ O $ @ @ * @ @ y ' ] 1.[.JXFX[.W.h.E.1.` ) rXyX5                     ",
"              p @.,./.Q.E.).|.~.dXFXMXMXgXMXR.R.R.}.R.G.l , > 6 w w l ! =.fXmXFXmXMXXX^.E.h.O.` E ` 1.3.s                       ",
"              . a 1.3.=./.c.O.1.W.W.[.FX9XDXMXDXDXFX9XR.J.&.D.K.}..XFXXXMXDX9XMXXX.XE.;.c.O.E p s $.v.t .                       ",
"                % ' (.] ` ) R O.h.] .X[.'.XX^.gXDX9XXXXXXXMX9X9X9X9XeXFX!.XX'.^.'.*.' ;.W R R ^ ' $.l                           ",
"                  $ r *./.3.) E R R c.W.!.'.!.XX'.+.&.}.[.XX&.V  .h.!.XX~.'.^.~.Q.( B O.N ^ ' J.K 2                             ",
"                      e g.c.] ^ E E ] ] ( ;.W.~.^..X~.XXXX.Xo.i / W.J.!.).W.o.Q ) ^ O.O.O.$.E.K +                               ",
"                        2 #.'.(.1.@.O.$.` h 1.h.W.Q.*.J.'.XX).c.^.'.J.*.$.O.Q B Q Q 1.#.W. .r .                                 ",
"                          . t *.[.'.1.<.N B / ] O./ / ...XXXfX[.~.*.J.;.( ] B B / *.'...m $                                     ",
"                              $ s O.W.[.c.^.D O.c.h y ^ c.E.=.' h y +.;.' E.W.J.W...y O                                         ",
"                                  . : N $.^.!..XfX#.$.(.).W.W.E.h.#.'..X'.W.c./ q $                                             ",
"                                        . & t B $.2.2.h.h.h.J.h.h.2.=.m e : .                                                   ",
"                                                X . . . . . . . . . X                                                           ",
"                                                                                                                                ",
"                                                                                                                                ",
"                                                                                                                                ",
"                                                                                                                                ",
"                                                                                                                                ",
"                                                                                                                                "
};
