/* XPM */
static char *result[] = {
/* columns rows colors chars-per-pixel */
"64 64 233 2 ",
"   c #000000",
".  c #080707",
"X  c #0A0905",
"o  c #0C0B0A",
"O  c #120E06",
"+  c #180C06",
"@  c #141107",
"#  c #15110B",
"$  c #1B140B",
"%  c #1D180D",
"&  c #131312",
"*  c #1A1813",
"=  c #1E1B14",
"-  c #281809",
";  c #361A08",
":  c #221D15",
">  c #3B220B",
",  c #3A280A",
"<  c #26221C",
"1  c #362A16",
"2  c #362A17",
"3  c #2B2926",
"4  c #342D24",
"5  c #373228",
"6  c #3A3935",
"7  c #3E3D3A",
"8  c #441D04",
"9  c #46270B",
"0  c #542B0A",
"q  c #4F330E",
"w  c #54350F",
"e  c #5A340A",
"r  c #4A2F13",
"t  c #512B10",
"y  c #48331A",
"u  c #543312",
"i  c #5C3C13",
"p  c #593915",
"a  c #772E06",
"s  c #6D370D",
"d  c #783909",
"f  c #653C17",
"g  c #6A3D12",
"h  c #413220",
"j  c #523C24",
"k  c #493F33",
"l  c #5D400D",
"z  c #59451A",
"x  c #684618",
"c  c #714A11",
"v  c #784915",
"b  c #78531A",
"n  c #5B4525",
"m  c #524938",
"M  c #694621",
"N  c #754E24",
"B  c #745728",
"V  c #60523B",
"C  c #4B4942",
"Z  c #504F4C",
"A  c #58544A",
"S  c #5A5854",
"D  c #625742",
"F  c #605C55",
"G  c #73634A",
"H  c #6E695C",
"J  c #756A5B",
"K  c #6E6C66",
"L  c #726E68",
"P  c #787368",
"I  c #883706",
"U  c #973E07",
"Y  c #89440A",
"T  c #964708",
"R  c #9C4A09",
"E  c #8B530E",
"W  c #9A560C",
"Q  c #8C4E11",
"!  c #895816",
"~  c #965817",
"^  c #A34C08",
"/  c #A3520A",
"(  c #A85809",
")  c #B05D0F",
"_  c #A55D13",
"`  c #9B620C",
"'  c #8D621B",
"]  c #976319",
"[  c #A8650C",
"{  c #B3670B",
"}  c #A56312",
"|  c #A76719",
" . c #AD6B1C",
".. c #B66915",
"X. c #BA7819",
"o. c #855A26",
"O. c #8A6627",
"+. c #976B27",
"@. c #9A742C",
"#. c #8C6937",
"$. c #977433",
"%. c #9A7637",
"&. c #917039",
"*. c #AD6C23",
"=. c #AD7725",
"-. c #B97A27",
";. c #A26B30",
":. c #C36D08",
">. c #C67A1B",
",. c #C37C24",
"<. c #887048",
"1. c #95774B",
"2. c #89775A",
"3. c #A27F48",
"4. c #857A67",
"5. c #BF8220",
"6. c #A98539",
"7. c #B38B38",
"8. c #C58818",
"9. c #CD8425",
"0. c #CC8A2B",
"q. c #D38D2B",
"w. c #CE942B",
"e. c #D39629",
"r. c #C48939",
"t. c #C99539",
"y. c #D39A36",
"u. c #D6983A",
"i. c #D5A139",
"p. c #9B845B",
"a. c #AC8B44",
"s. c #AA864C",
"d. c #B68945",
"f. c #AC9043",
"g. c #BB9647",
"h. c #AE8955",
"j. c #B5985D",
"k. c #878277",
"l. c #998E76",
"z. c #A88962",
"x. c #BC9D67",
"c. c #A89572",
"v. c #B79F72",
"b. c #BAA16E",
"n. c #BEA678",
"m. c #C38C47",
"M. c #CA9549",
"N. c #D29D45",
"B. c #C89A55",
"V. c #D39F57",
"C. c #CBA346",
"Z. c #D9A349",
"A. c #DDA44D",
"S. c #CAA15D",
"D. c #DCAB55",
"F. c #D9A859",
"G. c #E4AE51",
"H. c #E3B35B",
"J. c #CDA264",
"K. c #CAA66A",
"L. c #D7A965",
"P. c #D4AB6B",
"I. c #DCB367",
"U. c #D8AC72",
"Y. c #CFB27F",
"T. c #D8B376",
"R. c #DCB47B",
"E. c #E4B766",
"W. c #E2B977",
"Q. c #8D8A83",
"!. c #97948A",
"~. c #9D9B94",
"^. c #A29889",
"/. c #A19E94",
"(. c #ADA48E",
"). c #B7A78E",
"_. c #A6A39A",
"`. c #B4AC98",
"'. c #B4B1A8",
"]. c #BFB8AA",
"[. c #CAB187",
"{. c #D9B985",
"}. c #CBB899",
"|. c #D3BA93",
" X c #E3BC85",
".X c #E1BE8B",
"XX c #C4BBA6",
"oX c #C1BDB3",
"OX c #DDC28C",
"+X c #DBC398",
"@X c #E6C188",
"#X c #F2CA86",
"$X c #E6C89A",
"%X c #CCC0A7",
"&X c #D8C7A9",
"*X c #DCCBAD",
"=X c #CAC5B9",
"-X c #D6CCB8",
";X c #DAD2BE",
":X c #E7CCA4",
">X c #ECD4AD",
",X c #E1D2B5",
"<X c #E4D6BC",
"1X c #E8DBBE",
"2X c #F0DAB8",
"3X c #D2CEC4",
"4X c #DDD5C3",
"5X c #DAD6CA",
"6X c #E2D7C1",
"7X c #E4DBC4",
"8X c #E9DDC4",
"9X c #E5DDCB",
"0X c #E9DFC9",
"qX c #E2DDD2",
"wX c #EBE0C6",
"eX c #EBE2CC",
"rX c #E6E1D4",
"tX c #ECE5D3",
"yX c #E9E5D9",
"uX c #EDE6D8",
"iX c #EEE8DB",
"pX c #F1E7D4",
"aX c #F1E9D5",
"sX c #F4ECDC",
"dX c #F6F0DF",
"fX c #EEEBE4",
"gX c #F3EDE1",
"hX c #F6F0E3",
"jX c #F9F2E4",
"kX c #F6F3E9",
"lX c #FAF6EA",
"zX c #FCF8EE",
"xX c #FEFAF2",
/* pixels */
"                                                . Z !.3XrX9X8X4X7X9X5X9XrXqXoXS .                                               ",
"                                              . C ].yXiXaXuXuXrXeX9XeXeXtXsXdX3XZ .                                             ",
"                                              Z 3XgXkXgXuXuXtXrX9XeXtXtXaXgXhXkX3X6                                             ",
"                                            * '.kXkXgXuXtXeXrX9XrXeXrXeXiXiXhXlXzX4.o                                           ",
"                                          . S yXkXkXgXpXtXeX8XeXwXwXeXtXsXsXhXlXxX].3                                           ",
"                                          o Q.xXlXlXjXsXaXeXwXwXeXeXpXaXsXdXjXlXxX3X6                                           ",
"                                          o !.xXxXlXsXsXaXeX0X8X8XrXeXaXsXdXjXlXxXyXS                                           ",
"                                          & _.xXlXlXhXsXaXeX1X8XwXeXeXeXaXsXhXlXxXkXQ..                                         ",
"                                          5 5XxXlXjXjXsXpX8X8X8XwXeXeXtXaXdXjXlXlXlX!..                                         ",
"                                          7 fXxXlXjXsXpXeX8X8X2X8XeXwXeXaXsXdXlXlXlX_.#                                         ",
"                                          7 fXxXlXjXhXpXpX8X8X8X8XwXwXwXpXaXdXlXkXzX5X5                                         ",
"                                          7 fXxXjXjXsXpXeX8X0X0X0X8X8XwXpXaXdXjXlXzXqX7                                         ",
"                                        . L kXzXlXdXsXpXpXwX0XwXeX1X<XwXeXaXsXjXkXzXqX6                                         ",
"                                        o !.zXlXjXjXaXpX0X0X0X8X7X,X<X7XeXaXsXdXjXzXqX6                                         ",
"                                        o ~.zXlXhXdXaXpXeXpX0X6X,X,X,X7XwXaXsXdXjXlXrXm                                         ",
"                                        o /.lXjXjXdXpXpX0X8X6X,X*X*X,X<XeXeXaXsXhXlXrX7                                         ",
"                                        o _.lXjXsXpXwX<X<X*X*X}.|.|.&X*X,X8XeXaXsXjX5Xm                                         ",
"                                        o ^.2X:X:X$X X X|.{.U.m.m.M.B.J.U.R.@X$X:X>X-X6                                         ",
"                                        X 1.t.*.*.*.*.;.B.m.| U T W T _ ..X.-.>.8.q.N.4                                         ",
"                                        X O.+.B M r t f m.;.8 - ; ; 8 0 g v ! } { 9.N.2                                         ",
"                                        X O.@.z.1.M N N 3.M + + t s s N o.o.~ =.u.D.R.5                                         ",
"                                        + p.B.J.L.N.V.J.V.;.Q 8 ~ *.*.-.u.M.Z.Z.A.E.P.2                                         ",
"                                        . G R.S.M.V.R.R.V.*.*.~ _ >.| -.A.G.A.A.E.#XT.1                                         ",
"                                          4 W.F.V.V. XR.V.,._ :...>.,.q.u.u.Z.A.H.#XK.1                                         ",
"                                          1 L.W.Z.I..X{.J.,.^ ^ ^ ) 9.9.9.u.N.N.D.E.j.%                                         ",
"                                          : h.W.F.W.:X.XJ.,.) U I U ..,.0.u.N.t.G.I.<.X                                         ",
"                                          o <.R.E..X>X.XU.-.U I I U ) ..5.0.u.y.H.E.O..                                         ",
"                                          o 2.W.F..X.XR.K.*.I ^ U U ) ..,.q.u.Z.H.I.B .                                         ",
"                                          . 2.#XE. X XJ.B.) a ^ ^ T ( ..9.q.u.G.H.K.2                                           ",
"                                            m P.E..X:XR.,.) T I ^ ^ ( [ 9.0.u.G.H.S.1                                           ",
"                                            k T. X$X:XL.*.T d a ^ ^ R T [ q.u.e.G.1.#                                           ",
"                                          . J @XE..X.XV.;.d 8 a I T / T _ X.q.q.G.B                                             ",
"                                          . J $XL.T..Xr.Q d T / ^ ^ / W [ X.e.y.i.z                                             ",
"                                            6 [.E.H.T.r.E Q X.:.( T T E [ { e.e.g.1                                             ",
"                                            o c.I.D.D.=.[  ...( W T I W [ { 8.e.7.-                                             ",
"                                              D P.D.i.X.[  .W Y Q _ _ W [ 8.e.i.$.$                                             ",
"                                              5 Y.I.t.5.! ~ ~ e v ! [ [ ` X.w.i.B .                                             ",
"                                              < n.W.t.-.| W W Y d Y W X.X.8.w.w.b                                               ",
"                                              o 2.T.7.M.-.` Y a s ~ W [ [ 6.7.i.B                                               ",
"                                                G C.P.{.7.E b g s v c E ' =.t.C.z                                               ",
"                                                m K.R.I.7.b i x v 0 e v E ] 6.7.- .                                             ",
"                                                < S.OXS.d.c i u > 0 w E ' ' 7.7.@ .                                             ",
"                                                : j.+X{.d.x 9 , - , w ! @.O.6.7.@                                               ",
"                                                = j.+XOXa.f 9 , ; - , v ' @.7.6.@                                               ",
"                                                $ b.>X+Xs.r - ; 9 ; > l b ] @.6.@                                               ",
"                                                % n.:X{.3.p ; ; ; - , q e c x 6.$                                               ",
"                                                = v.{.{.a.b p h - ; e w l b O.f.@                                               ",
"                                                = p.v.{.a.i 9 u u w c x b b 6.6.@                                               ",
"                                                : z.n.|.x.x 9 j 0 f ! o.O.b B 6.@                                               ",
"                                                4 %X*X|.[.&.x 9 0 t M B b @.6.f.@                                               ",
"                                              o P 1X1X&X}.h.O.t t u b $.%.g.6.%.@                                               ",
"                                              3 %XaXeX;X&Xv.&.N t f o.%.a.6.$.6.%                                               ",
"                                              K uXsXtX6X&X}.3.p 8 f O.%.6.b O.7.y                                               ",
"                                            3 ].jXsXtX7X7XXXc.p 8 f o.$.@.@.6.f.z                                               ",
"                                          3 !.yXlXgXtX0X7X-X).N e x <.&.$.$.O.$.z                                               ",
"                                        & k.iXlXhXsXrX9X7X-X}.<.u v o.&.&.#.O.6.z .                                             ",
"                                        6 =XgXgXgXpXqX9X6X-X}.p.v Q ' +.6.#.6.f.n                                               ",
"                                    o 3 4.qXgXgXgXqX9X7X4XXX(.1.u u p x B B 2.c.P o                                             ",
"                                  & L ].fXfXgXgXuX7X6X4X4X}.l.V & . * : 2 2 H '._.<                                             ",
"                                  S 5XkXfXfXgXiXqX4X-X;X6X3XXXG # O $ : 4 5 P ].l.:                                             ",
"                                  P fXgXiXiXfXiXiX9X4X4X4X-X=Xk.j y , 5 A V l.%Xl.:                                             ",
"                                  K 4X9XrXiXiXrX9X3X;X3X-X-X=Xc.j 1 - $ % < 4.`.L &                                             ",
"                                . 6 K Q.!.(.`.`.(.(.(.`.XXXXXXk.5 # o X   * 6 4 o                                               ",
"                                    X * = < 3 m k k m C F F A 3 # X X         .                                                 "
};
