/* XPM */
static char *result[] = {
/* columns rows colors chars-per-pixel */
"64 64 256 2 ",
"   c #000000",
".  c #0C0B0A",
"X  c #090707",
"o  c #0C0D12",
"O  c #181616",
"+  c #121010",
"@  c #261C1A",
"#  c #391C1A",
"$  c #29221F",
"%  c #3A251E",
"&  c #181D26",
"*  c #16193A",
"=  c #1C2528",
"-  c #192838",
";  c #08363D",
":  c #183338",
">  c #282828",
",  c #382725",
"<  c #252D3B",
"1  c #353331",
"2  c #2E1B38",
"3  c #4A1C23",
"4  c #591D25",
"5  c #6F1926",
"6  c #492B27",
"7  c #4C332B",
"8  c #463128",
"9  c #55362D",
"0  c #473934",
"q  c #543B32",
"w  c #5B3B34",
"e  c #54222F",
"r  c #623B35",
"t  c #783939",
"y  c #6C2A2D",
"u  c #5C1618",
"i  c #29423C",
"p  c #08433E",
"a  c #5B453A",
"s  c #485336",
"d  c #64443A",
"f  c #6A4439",
"g  c #72473E",
"h  c #73553A",
"j  c #695934",
"k  c #6C683E",
"l  c #171A45",
"z  c #171B54",
"x  c #063B47",
"c  c #162D4C",
"v  c #242A43",
"b  c #293447",
"n  c #2C3355",
"m  c #13196A",
"M  c #152167",
"N  c #2A366A",
"B  c #533B49",
"V  c #77344C",
"C  c #651C47",
"Z  c #15474A",
"A  c #094955",
"S  c #184755",
"D  c #105150",
"F  c #284C49",
"G  c #384A49",
"H  c #39574A",
"J  c #264A55",
"K  c #295757",
"L  c #395956",
"P  c #324E4F",
"I  c #346857",
"U  c #0B5969",
"Y  c #13596C",
"T  c #265667",
"R  c #344578",
"E  c #324D70",
"W  c #186677",
"Q  c #126C73",
"!  c #366867",
"~  c #367979",
"^  c #2D6C6F",
"/  c #1B6753",
"(  c #495B56",
")  c #4F5247",
"_  c #684B42",
"`  c #774C42",
"'  c #7A5547",
"]  c #715752",
"[  c #516B55",
"{  c #676857",
"}  c #796356",
"|  c #736C4E",
" . c #455070",
".. c #5A7867",
"X. c #467A78",
"o. c #4C6C6C",
"O. c #697A78",
"+. c #6F7368",
"@. c #B30617",
"#. c #941423",
"$. c #A83030",
"%. c #991A25",
"&. c #CA0215",
"*. c #DB1F21",
"=. c #8A4D3A",
"-. c #AD492D",
";. c #8C7039",
":. c #CA4B32",
">. c #CE732F",
",. c #CB531F",
"<. c #8C3740",
"1. c #A4205A",
"2. c #D13E41",
"3. c #854B45",
"4. c #875549",
"5. c #945A4D",
"6. c #865953",
"7. c #9A5D54",
"8. c #955952",
"9. c #9A464D",
"0. c #A74B52",
"q. c #A65854",
"w. c #AF5352",
"e. c #886656",
"r. c #9B6254",
"t. c #9D6B56",
"y. c #9D6E5A",
"u. c #966857",
"i. c #9C715D",
"p. c #90644C",
"a. c #A46B5A",
"s. c #AA6C5D",
"d. c #A66657",
"f. c #B3685D",
"g. c #A9725E",
"h. c #B86C57",
"j. c #997667",
"k. c #897569",
"l. c #AC6D62",
"z. c #A56C61",
"x. c #B36D64",
"c. c #BA6E66",
"v. c #A47364",
"b. c #AD7364",
"n. c #AD7C6A",
"m. c #A87A67",
"M. c #B27264",
"N. c #B37B65",
"B. c #B37E6C",
"V. c #BB7B6B",
"C. c #B97669",
"Z. c #A87B71",
"A. c #9A4D72",
"S. c #D64A4C",
"D. c #C3786D",
"F. c #C27D71",
"G. c #EF5468",
"H. c #368879",
"J. c #718851",
"K. c #518E7A",
"L. c #678868",
"P. c #6E9170",
"I. c #65A17F",
"U. c #CFA233",
"Y. c #BAA957",
"T. c #918E76",
"R. c #BC826C",
"E. c #B6816A",
"W. c #AA8474",
"Q. c #B88978",
"!. c #B58C79",
"~. c #AEB277",
"^. c #AEA467",
"/. c #C3836E",
"(. c #C88778",
"). c #CF8E7C",
"_. c #DAA764",
"`. c #B8C07E",
"'. c #EBD86D",
"]. c #132D86",
"[. c #38549A",
"{. c #324D88",
"}. c #0C738A",
"|. c #2A7683",
" X c #2C7890",
".X c #2567AF",
"XX c #455A97",
"oX c #4A5B89",
"OX c #506D8F",
"+X c #667893",
"@X c #4A67AA",
"#X c #5873AA",
"$X c #4F6BA9",
"%X c #445CA8",
"&X c #4767C2",
"*X c #553499",
"=X c #996B92",
"-X c #368885",
";X c #108BAD",
":X c #3793A9",
">X c #18849C",
",X c #4A8786",
"<X c #56978A",
"1X c #4E9092",
"2X c #6C908C",
"3X c #6FAC98",
"4X c #4C93AC",
"5X c #768EAB",
"6X c #59A8A9",
"7X c #47AABC",
"8X c #53ABB2",
"9X c #6BB1B2",
"0X c #7AC7B2",
"qX c #0890C9",
"wX c #3CACC4",
"eX c #2595CA",
"rX c #45ACC6",
"tX c #54B4C9",
"yX c #74B5C5",
"uX c #5E97CB",
"iX c #56C6D7",
"pX c #6DD0CD",
"aX c #8F9594",
"sX c #91AA93",
"dX c #A8AC8B",
"fX c #888EAC",
"gX c #97B1AB",
"hX c #AAB9AB",
"jX c #AB9385",
"kX c #CB9784",
"lX c #D59987",
"zX c #D1948D",
"xX c #E09B8E",
"cX c #DBA28E",
"vX c #DBA694",
"bX c #CEA79A",
"nX c #EAAB99",
"mX c #CBB6AD",
"MX c #F0B1A9",
"NX c #85D1AC",
"BX c #B8C8A3",
"VX c #CAD9AF",
"CX c #F2C6BA",
"ZX c #E4EAB9",
"AX c #8FB1CE",
"SX c #B4BECF",
"DX c #8A84C6",
"FX c #8CCFCF",
"GX c #AAE3E6",
"HX c #A3D2E8",
"JX c #D6D6CB",
"KX c #DBECEC",
"LX c #FFFFFE",
"PX c #FBFEF4",
"IX c #EAF1F3",
"UX c #E2E1D6",
/* pixels */
"                                                                                                                                ",
"                                                                                                                                ",
"                                                                                                                                ",
"                                                                                                                                ",
"                                                                                                                                ",
"                                                                                                                                ",
"                                                                                                                                ",
"                                                                                                                                ",
"                                                                                                                                ",
"                                                                                                                                ",
"                                                          X                                                                     ",
"                                            X   X                                                                               ",
"                                                        O I ( +     X                                                           ",
"                                X + = = < < b b b < < P <X0XpX!   X , + .           X                                           ",
"                          X O E [.OX#X#X#X$X$X@XXX[.{.H.-X9XFX6X= O n.5.5.r X                                                   ",
"                        . n XXXX[.E R {.R R {.{.{.{.R W -X0XiX4XF _ ] e.u.v.y.6.' w , @ +                                       ",
"                    X v  .+X .o.o.P x S S n S N J N E T |.4XrX7XI j.W.W.E.T.W.!.jXkXQ.Q.Z.O                                     ",
"                  X E oX! aXo.( G Z A A A S D J / H H H ~ :XrX8XI | e.e.e.u.i.W.n.!.Q.!.!.W.k.] _ 1 O                           ",
"                X  .C.h.jXaX! ! I D A A A A A x p / / s ,X:XtX6XK ) } e.' | e.i.b.n.n.W.B.W.Q.Q.!.!.W.} 1 X                     ",
"                P A.*.).bX^ x x x Z A D A A Z Z F / / i K.:XNX3XK , _ e.} h 6.u.z.b.M.b.M.M.b.z.j.v.j.n.W.e.@                   ",
"              - fXS.:.jXjXW U U A A x Z ; ; ; ; p D / s ^ 8XdX3X! $ a ] 6 d h ' y.z.b.M.b.b.l.v.z.z.i.v.v.Z.W.s                 ",
"            X OXfXd.z.T.2X<XOX X X|.Q U U U U D U H.H.j [ 8X~.0X~ = a 7 > q h ` 8.a.l.l.M.x.l.l.a.u.y.a.g.j.y.W.a               ",
"            - $X! { ( J J c S J S J S Y Y Y W W ^ -XK.j K.-X~.0X<X> 7 @ 1 7 r _ 4.d.s.x.x.b.l.s.t.p.r.t.t.a.t.u.m.a             ",
"            b K P ) ) ( K K P M l l * x b Z Z F I X.[ | P.3X~.0XI.> 7 @ o $ w f 4.7.s.M.x.M.b.s.d.5.5.a.a.t.t.y.e.i.,           ",
"          X oXo.G i : : 2 2 * m ].].m N k._ ) T.+.2XL.| L.I.~.0XK.> 8 @ X $ 9 f 4.7.l.c.M.b.l.s.r.5.d % f t.y.y.i.i.e.X         ",
"          > IXPXMXmXhX<.4 M m 2 e b e y j.W.t w r { L.| L.I.dX0XI.> 8 $ $ % 6 f 4.t.l.l.l.s.l.d.r.h X     4.g.t.t.t.i.0         ",
"      X   O.LXLXjXT.2.#.n .XM 4 @.@.@.@.%.<.#.u 9 ( ) p.) P.BXNXI.1 7 % @ % 9 f 4.7.7.8.5.8.d.r.r.7   X   t g.s.a.a.a.e..       ",
"          SXLXaX{ 9.@.C z v O 3 @.&.&.&.&.@.@.@.$.aX{ j [ sX~.<XI 1 9 8 6 6 7 f ` 4.6.7.8.=.8.8.r.%       t d.g.a.a.a.p.@       ",
"        = IXUX3.] G.@.m l = = = e %.y i B 0 e B } ] =.;.J.sXT.<XP 1 q 7 6 8 w g 3.5.7.t.` y 4.8.7.#       t q.a.a.s.a.r.,       ",
"      < +XLXSXbXzX2.=X#Xn & * $ 6 2 v c n c z e #.@.#.=.L.hX`.,XP 0 q 7 8 w g ' 3.8.7.d.5.g 5.7.q.#   X   t 0.s.M.x.z.a.w   X   ",
"    X $X#XLXIXCXzXvX=X_.p.l * , y #.N ].z * * P ] ' | k K.gXP.,XF 0 w q 7 w g 4.3.8.d.C.d.3.` l.w.6       <.0.f.C.C.s.d._       ",
"    X XXAXLXLXUX2.=X~.>.%.N z v a 4 E M v v K ^ Q ( [ J./ dX`.,XF 0 f r r f 4.3.5.d.x.D.f.3.8.x.w.4       <.0.d.C.C.l.t.4.X     ",
"      o gXLXKXMX1.SX_.*.-.N m ( s , v l ; J J L I G s J.~ sX~.<XF a f d r f h 4.7.l.C.F.7.3.q.l.0.4       <.0.d.F.F.M.a.6.+     ",
"        fXPXJXzX*XDXG.9. .M G | > < l c T E ^  X,XF J.J.1XgX^.,XF q d a 9 9 g =.7.M.V.C.t 3.C.l.0.3       9.w.c./.F.C.b.5..     ",
"        fXUXZXdX*XXX1.V #.%.$.t b * - b S S Y T L G k k ,XgX~.,Xi 7 w 8 % 9 g 4.z.l.V.D.0.8.C.z.0.3       0.h.h.V./.V.M.`       ",
"        #XIXJXVX%X{.1.*.*.*.&.V Y ^ X.^ }.U U W T L | J.K.gX^.,Xi 8 8 % % 6 g 4.l.M.q.f.q.x.D.c.w.e     X 0.h.R.V./.V.g.q   X   ",
"        +XIXIXZXfX]. .3.$.V B T }.H.-X~ }.U Q |.^ [ j J.NXdX~.P.: 8 , O , 6 ` 8.d.c.c.q.f.C.V.M.c.w   X   4./.R.R.R.C.N.,       ",
"         .HXIXIXVX=X .J ] 6.n |.Q ~ ~ ~ }.U }.;XH.I h ..6XBX'.L.= 9 % . + w ` u.l.x.C.c.l.l.c.c.s.f     + N./.R./.R.E.y.+       ",
"    X   c AXGXFXFXSXCXfX;X|.( ~ ~ ....X.^ Q >X;X-XH | I.6XBX_.L.= 9 , o > r ' r.f.x.D.D.x.f.x.x.s.5.r 7 a././.R.R.E.n.a         ",
"        o 5XHXKXGXgXhX+X}.;XH.X.X...{ ..H./ >X;X-XJ | 3XpX5X+...$ a 6 > _ ' 8.u.l.D.D.F.C.c.C.C.l.s.r.h.V.E.R.E.E.g.i.@         ",
"          E HXFXAXyX;X.XqX;X}.Q o.{ =.=...! Q :X,X( ] 0XFX2XO.L $ d d % ` u.p.r.l.D.(.(.F.F.F.V.N.M.N.N.N.N.N.b.i.g.a           ",
"          & uXtX X:XqX;X;X;X>X-XX.J.$.,.=.| K.,XI...J.8X6X2X2XL $ j ' d h i.y.g.V.(.zXF.F.(.(.F.N.b.C.R.E.N.m.g.E.'             ",
"            N uX4XeXqXqXiX9XgX5X+X..g ,.U.-.p.+.+.{ o.pX<X1X<XP 0 ' e.p.y.g.N.E.F.F.).).(.(.(.Q.V.b.n.E.N.E.v.n.e..             ",
"          X . XX4XqXqX X}.W A x ; : 1 y U.U.-.p.d.w.+.rX6X1X,XG | e.i.u.g.g.E.Q.lXlXlXlXlX(.kX(.Q.E.E.n.m.m.B.e.+               ",
"              O #X%X}.S c x ; E O.K.+Xe.$.U.U.,.-.:.2XrXtX8XOX) u.y.g.g.g.E.R.).xXlXxXxXxXlXlX).(.Q.B.B.R.n.a X                 ",
"                O oXXXOX5XaXaX3X<XK.H.P.p.-.Y.Y.>.w.6XiXrX1X~ ] E.m.m.E.E.Q.!.).lXxXvXvXvXvXcXvXlXlXlXW.] O                     ",
"                  X v oX+XOX=X~ / / J P n n n R XXoX7XiX7X1X^ k.!.).kXkX).).).kXlXlXcXvXnXbXbX!.j.} ) +                         ",
"                        o v E [.@X@X[.[.[.[.[.{.%XeXwXiXtX1XL s a e.k.i.W.E.R.nXnXnXnX(.0 O .           X                       ",
"                              o b  .oX$X$X$X%X&X&X:XwXiX9X1XF X Q.).h.h.V.z.b.xXMXMXCX)..       X                               ",
"                          X           X o = b n & - iXiX9XX.o   @ q 6 , O     + , O 8 @                                         ",
"                                                    : 9X3X=                                                                     ",
"                                              X X     X X         X   X           X X                                           ",
"                                                                                                                                ",
"                                                                                                                                ",
"                                                                                                                                ",
"                                                                                                                                ",
"                                                                                                                                ",
"                                                                                                                                ",
"                                                                                                                                ",
"                                                                                                                                ",
"                                                                                                                                ",
"                                                                                                                                ",
"                                                                                                                                ",
"                                                                                                                                "
};
