/* XPM */
static char *result[] = {
/* columns rows colors chars-per-pixel */
"64 64 255 2 ",
"   c #000000",
".  c #080808",
"X  c #0A0B0C",
"o  c #110E0D",
"O  c #0C0E13",
"+  c #111012",
"@  c #161415",
"#  c #261C19",
"$  c #2D201D",
"%  c #36231E",
"&  c #171C27",
"*  c #1B1F3B",
"=  c #1B222A",
"-  c #1A253B",
";  c #2A2A28",
":  c #392926",
">  c #27312D",
",  c #37342D",
"<  c #2C2F35",
"1  c #222638",
"2  c #393436",
"3  c #4F1E24",
"4  c #701929",
"5  c #442D27",
"6  c #453229",
"7  c #4B342B",
"8  c #4C2D34",
"9  c #493934",
"0  c #543A32",
"q  c #5A3C33",
"w  c #593934",
"e  c #69272C",
"r  c #633B36",
"t  c #773938",
"y  c #2B4239",
"u  c #58433A",
"i  c #405F3F",
"p  c #67463B",
"a  c #76483D",
"s  c #6A5A3B",
"d  c #68663E",
"f  c #191B48",
"g  c #2E1B51",
"h  c #192447",
"j  c #0B3E47",
"k  c #1A3A49",
"l  c #192359",
"z  c #273547",
"x  c #2E3452",
"c  c #1A286A",
"v  c #26376C",
"b  c #4C3751",
"n  c #703049",
"m  c #0A444B",
"M  c #164449",
"N  c #0A4854",
"B  c #174755",
"V  c #155755",
"C  c #2C4847",
"Z  c #344747",
"A  c #39584B",
"S  c #254A57",
"D  c #324E50",
"F  c #2B565A",
"G  c #375855",
"H  c #19624B",
"J  c #246149",
"K  c #36645C",
"L  c #0E5767",
"P  c #175968",
"I  c #0A5B70",
"U  c #294564",
"Y  c #295764",
"T  c #344D71",
"R  c #126878",
"E  c #396467",
"W  c #38766A",
"Q  c #2A6D73",
"!  c #276978",
"~  c #367A78",
"^  c #565749",
"/  c #4D5050",
"(  c #6D4D42",
")  c #784C42",
"_  c #6B5747",
"`  c #795548",
"'  c #6A4F54",
"]  c #775C51",
"[  c #506950",
"{  c #5B645A",
"}  c #686858",
"|  c #796558",
" . c #6E7053",
".. c #484D68",
"X. c #445579",
"o. c #436865",
"O. c #556A64",
"+. c #4C796A",
"@. c #477977",
"#. c #557272",
"$. c #73736B",
"%. c #980B16",
"&. c #AA0C1F",
"*. c #BA051B",
"=. c #8D1C28",
"-. c #AE1527",
";. c #8B2F33",
":. c #B53632",
">. c #D21524",
",. c #8A4B36",
"<. c #AC5731",
"1. c #BB7331",
"2. c #CC4D36",
"3. c #CB772B",
"4. c #943B4A",
"5. c #913454",
"6. c #CB3D53",
"7. c #854C45",
"8. c #984849",
"9. c #875449",
"0. c #8C5B4C",
"q. c #95594C",
"w. c #8F5D51",
"e. c #935C53",
"r. c #9A5D53",
"t. c #A94F52",
"y. c #A65B56",
"u. c #95644B",
"i. c #896756",
"p. c #8C6C57",
"a. c #9B6353",
"s. c #9D6A54",
"d. c #966958",
"f. c #9C6C59",
"g. c #A76F55",
"h. c #A66558",
"j. c #A46B5B",
"k. c #AA6C5D",
"l. c #B1695E",
"z. c #88736B",
"x. c #9B7666",
"c. c #A86961",
"v. c #AC6D63",
"b. c #B36D63",
"n. c #B36F68",
"m. c #A37462",
"M. c #AC7364",
"N. c #A77967",
"B. c #AD7D6B",
"V. c #B37264",
"C. c #B37B64",
"Z. c #B97468",
"A. c #B37D6B",
"S. c #BB7C6A",
"D. c #B67E74",
"F. c #CA5550",
"G. c #ED555F",
"H. c #C27A6D",
"J. c #C47A72",
"K. c #37876C",
"L. c #6C8551",
"P. c #50886D",
"I. c #4C847B",
"U. c #568977",
"Y. c #6A8667",
"T. c #6A8C73",
"R. c #9A8F69",
"E. c #AD856D",
"W. c #B68068",
"Q. c #BC826C",
"!. c #AB8473",
"~. c #B88776",
"^. c #96A47B",
"/. c #A3AB77",
"(. c #D79049",
"). c #D2B453",
"_. c #C1846D",
"`. c #C88779",
"'. c #D68D7B",
"]. c #C6917E",
"[. c #263785",
"{. c #194089",
"}. c #344E88",
"|. c #3B5687",
" X c #365397",
".X c #0F6F83",
"XX c #2D738A",
"oX c #3D5AAB",
"OX c #48588E",
"+X c #6B4A90",
"@X c #51718B",
"#X c #4A6798",
"$X c #70768D",
"%X c #435DA5",
"&X c #4A6BA6",
"*X c #6A78A6",
"=X c #8D7A98",
"-X c #128299",
";X c #2F8B8F",
":X c #108BAF",
">X c #3090AD",
",X c #3FA0B4",
"<X c #558783",
"1X c #508C8D",
"2X c #539496",
"3X c #6C908E",
"4X c #5CA39F",
"5X c #6BA796",
"6X c #78B79C",
"7X c #4D95AA",
"8X c #7489AA",
"9X c #55A2A3",
"0X c #4FA9B4",
"qX c #69B2AD",
"wX c #7DC49F",
"eX c #7CC5AA",
"rX c #0B90C6",
"tX c #3A85C3",
"yX c #3CADC3",
"uX c #4AACC5",
"iX c #58B4C9",
"pX c #62B7C4",
"aX c #54C4D2",
"sX c #6ECBCB",
"dX c #828A8F",
"fX c #B09089",
"gX c #91AB90",
"hX c #A7B783",
"jX c #A9B58C",
"kX c #8A92A7",
"lX c #B396A4",
"zX c #8DAAA3",
"xX c #B5B0AF",
"cX c #CE8E86",
"vX c #CA9686",
"bX c #D69A89",
"nX c #DAA18F",
"mX c #DCA492",
"MX c #EEA695",
"NX c #D3B3A6",
"BX c #F3B6AC",
"VX c #85CEB2",
"CX c #B2C3AB",
"ZX c #DAE1BA",
"AX c #87B3C6",
"SX c #B5ABC3",
"DX c #A8CAD6",
"FX c #9ED8E4",
"GX c #A3D6E2",
"HX c #D5D6CB",
"JX c #E1DED9",
"KX c #E1E7DD",
"LX c #D4DFEC",
"PX c #EBEFEB",
"IX c #F7F9F8",
/* pixels */
"                                                                                                                                ",
"                                                                                                                                ",
"                                                                                                                                ",
"                                                                                                                                ",
"                                                                                                                                ",
"                                                                                                                                ",
"                                                                                                                                ",
"                                                                                                                                ",
"                                                                                                                                ",
"                                                                                                                                ",
"                                                                                                                                ",
"                                                                                                                                ",
"                                                        . > > X                                                                 ",
"                                    X @ & & = = = = = > W wXqXF   . # . .                                                       ",
"                              & U X.OX#X#X#X#X#X X X|.Q 1XqXeX2X= : p.7.a %                                                     ",
"                          @ x OXOX|.|.T }.}.}.}.}.}.T ! ;XqXaX,XZ u | i.d.d.` ( w 5 # @ .                                       ",
"                      O h T $X#.o.Y B N B S v x U U T T XX7XuX0Xo.z.x.x.x.!.E.~.~.~.B.N.9 .                                     ",
"                    @ ..X.#.dX../ C M N N B N B M D D G K.>X0X0Xo.i.p.p.p.d.x.E.!.!.fX~.!.p.] ^ 9 @ X                           ",
"                  O ' b.~.jX@XE E V N N N N N m m H J A I.>X0X9XK u | ] | i.p.m.B.B.!.A.D.!.!.!.!.x.| 9 o                       ",
"                . ..5.2.'.fXV m m N N N N m m M m H H i P.,XzX5XK , _ i.` s i.f.v.M.n.M.n.M.M.m.N.m.N.N.| : .                   ",
"                z kXF.F.~.3X! P L L N m m j j j m H H i W 9XgX6XK ; u ( 7 p ) 0.j.v.M.n.V.v.M.m.x.f.m.m.N.x.u .                 ",
"              O #X3Xr.i.$.U.@XXXQ ! ! I L L L V P Q K.d +.9XgXwXW ; 0 , , q a ` d.h.v.b.b.v.c.j.d.f.f.m.f.x.x.s .               ",
"              - @Xo.{ / G F B S B k k B B V L P Q ~ K.d  .2XgXwXU., 6 # , 5 p ) e.h.v.v.b.M.k.j.r.a.s.g.f.f.f.p.u               ",
"              z S Z Z Z D z x l c l l l S D M K o.+.+.L.Y.5XhXwXU., 6 @ + : q ) 0.h.b.V.V.M.k.h.q.0.u.a.h.f.f.f.i.:             ",
"            O 8XdX$.} A 2 8 f f l c c v $.i.n | | $.T. .Y.3XhXeXP., 5 @ @ % q a q.c.v.n.b.v.v.a.9.a 0.s.s.f.f.f.f.` o           ",
"            z PXIXNXNXD.=.g [.c 4 4 4 =.t x.9.e w / }  . .T.hXwXU., 6 $ % 5 w a 0.k.h.h.h.k.c.a.0.a 9.a.s.m.g.g.g.d.7           ",
"            =XIXJXz.e.-.4 c v 1 4 *.*.*.*.-.&.%.=.} } s [ T.hXwXP., 7 % % 5 q a 9.e.e.e.9.r.r.e.u.t 7.a.j.g.g.k.g.f.( .         ",
"          + xXPX=X$.F.&.g f = = 3 &.*.=.=.=.=.=.;.z.|  . .6X^.<XG , 0 6 5 5 0 a 9.9.r.r.,.7.e.e.q.t 8.r.j.j.k.g.j.f.` o         ",
"        X x LXHXD.c.6.5.[.f & = # 3 8 z z x h 8 a ;.;.,.L.gXgXU.D 9 0 7 6 q a a 9.e.y.e.t 7.r.y.8.t 8.q.h.g.l.k.k.h.e.#         ",
"        ..*XIXJXNXcXJ.=XR.b * = 5 4 8 l g 1 f < t ;.,.,.Y.gX^.<XC 9 0 7 7 r a 9.9.r.k.h.9.7.r.l.8.t 8.8.r.h.l.V.V.v.a.5         ",
"        X.8XIXIXJXJ.lX`.(.t g f , e b {.c f - F E O.[ L.P.dX^.<XC 9 r w w p 7.9.q.h.Z.b.q.7.y.l.8.n t.8.q.h.b.Z.Z.k.a.0         ",
"        z kXIXIXBX6.lX(.:.4.c l ^ 6 8 l h k F Y F / ^ L.P.gX/.U.C u p p r a ) q.y.b.J.b.q.9.b.t.4.=.t.8.q.l.Z.S.S.M.a.p .       ",
"          $XPXJXlX+XSXG.4.n v D u ; - h k S Y E @.A [ L.U.zX^.I.D u p q q r ,.9.h.n.J.y.a y.v.t.4.;.t.t.h.l.H._.H.V.j.p .       ",
"          $XKXZXfX+X+X5.n n n ;.u z - k B P P Q @.A i  .U.zX/.U.y 0 u 7 5 q a q.c.Z.J.y.8.v.n.c.4.4.t.t.g.Z.C.H._.C.k.w         ",
"          @XLXHXNX&X}.4.>.>.>.*./ B F K P P L R Y G d L.U.zX/.P.y 9 6 % % w a a.b.k.l.l.y.Z.n.n.r.4.y.b.Z.S.C.Q._.S.j.%         ",
"        . #.LXKXZX*X[.n 6.-.=.n ! ! XX@X.X.XI .XQ K d Y.6XjX/.T.> 7 % ; % q ) a.b.Z.y.t.b.S.Z.M.c.8.t.H.H._._._.H.C.a.#         ",
"          ..DXIXPXCX*X/ / 9.' Y .XR ~ ~ R R R -XQ W d L.4XCX).T.> 7 # + # r ` h.b.n.H.l.b.b.V.k.e.t a.S._._.Q.Q.Q.B.0..         ",
"          z AXGXDXDXxXxX2X-XX.o.~ I.+.I.W R .X:X;XK } U.9XxXhXL.> 7 % @ : a 0.f.l.H.H.b.l.b.V.k.e.,.u.C._._.Q.W.W.m.7           ",
"          O *XFXLXFXAXxX@X:X.X~ @.+.} } +.W R :X;XK _ 5XsXzXR.O.; q : , u 9.w.f.Z.H.J.H.Z.Z.V.V.j.a.s.C.W.W.W.C.m.0.+           ",
"            T sXFXAXiX>X:X:X:XXXW +. .,.} +.Q -X;XK _ 6XVX3X#.G ; p q 5 ` e.d.c.Z.J.`.J.J.J.S.V.b.V.C.C.C.C.g.C.f.,             ",
"            & 8XiX7X>XrX.XrXXX:X~ U.u.:.<.0.O.U.T.U.L.qX0X3XU.G : s ` p 0.f.g.M.S.`.'.`.`.`.Q.A.V.C.Q.W.C.N.m.m.u .             ",
"              v tX7XrXrXrXuXqX4X<X#.' ,.3.3.u.$.p. .} qX4X1X1XD u _ i.u.s.m.W.Q.`.cXcX`.`.'.`.S.A.A.A.A.B.C.m.` o               ",
"              X |.7XrX:XXX.XP B k M C 0 <.3.3.<.a.t.$.,X0X9XI./ | p.d.f.M.C.Q.`.'.bXbXbXcXcX`.~.D.A.B.C.B.m.) @                 ",
"                @ OX%XXXU U S D #.@XU.$.u.1.).3.2.<.=XuXuX9X@./ d.g.m.m.B.W.Q.].bXbXMXbXbXbXvXvX~.~.~.E.d.7 .                   ",
"                  @ .. X@X8XkXkX2XI.P.P. .,.u.R.g.s.3XaXuX7X@.| E.B.E.Q.~.`.].vXbXnXmXmXmXmXbXbXvX].x.0 @                       ",
"                    . = T X.OX@XW Y F U S U v T  X&X,XaX0X2X~ $.E.~.].].].].vXbXbXnXmXvXfX!.z.] u , o                           ",
"                          X & x T &X&X%X%XoX X XoXtXyXaXpX2XG 2 _ f.d.j.C.S.cXMXBXBXMX` O .                                     ",
"                                X = z U T |.OX%XoXXXyXaXqX1X> + d.V.y.a.9.( ` D.~.vXcX:                                         ",
"                                          X O & O X Q sXqXo.O   o @ @ o       . X . o                                           ",
"                                                    O G G @                                                                     ",
"                                                                                                                                ",
"                                                                                                                                ",
"                                                                                                                                ",
"                                                                                                                                ",
"                                                                                                                                ",
"                                                                                                                                ",
"                                                                                                                                ",
"                                                                                                                                ",
"                                                                                                                                ",
"                                                                                                                                ",
"                                                                                                                                ",
"                                                                                                                                ",
"                                                                                                                                ",
"                                                                                                                                "
};
