/* XPM */
static char *result[] = {
/* columns rows colors chars-per-pixel */
"64 64 223 2 ",
"   c #000000",
".  c #080704",
"X  c #0B0906",
"o  c #0C0B0A",
"O  c #110D06",
"+  c #100E0D",
"@  c #16100A",
"#  c #19130A",
"$  c #121211",
"%  c #1A1614",
"&  c #1A1916",
"*  c #1C1A1A",
"=  c #2C1908",
"-  c #371C07",
";  c #251D14",
":  c #211F1E",
">  c #27200F",
",  c #2C220F",
"<  c #37260E",
"1  c #3B220B",
"2  c #2C2513",
"3  c #2B2418",
"4  c #372815",
"5  c #272522",
"6  c #2D2924",
"7  c #362E27",
"8  c #393229",
"9  c #383735",
"0  c #452509",
"q  c #452A0C",
"w  c #4C2D0B",
"e  c #512D0B",
"r  c #54330D",
"t  c #5B3708",
"y  c #412E13",
"u  c #492E12",
"i  c #473417",
"p  c #543513",
"a  c #5D3C13",
"s  c #593815",
"d  c #6D2F06",
"f  c #683809",
"g  c #783707",
"h  c #633A14",
"j  c #763B13",
"k  c #443626",
"l  c #443D36",
"z  c #5E4115",
"x  c #6E450C",
"c  c #72490E",
"v  c #644213",
"b  c #684519",
"n  c #6B4B1C",
"m  c #724716",
"M  c #7D5317",
"N  c #74511B",
"B  c #7C551D",
"V  c #594325",
"C  c #46423C",
"Z  c #514A3B",
"A  c #664A23",
"S  c #754E27",
"D  c #6E5225",
"F  c #6E592E",
"G  c #775927",
"H  c #6A5637",
"J  c #735C32",
"K  c #7D612C",
"L  c #77633A",
"P  c #494745",
"I  c #524E47",
"U  c #56524C",
"Y  c #5B5956",
"T  c #786447",
"R  c #65615C",
"E  c #6A6663",
"W  c #686765",
"Q  c #746D65",
"!  c #79736B",
"~  c #7F7D7A",
"^  c #883A0B",
"/  c #913E03",
"(  c #884609",
")  c #93430A",
"_  c #974808",
"`  c #9A4D09",
"'  c #8A520C",
"]  c #98520A",
"[  c #9C530C",
"{  c #9A5C0C",
"}  c #864815",
"|  c #895716",
" . c #945617",
".. c #9A5A15",
"X. c #A04F08",
"o. c #A45509",
"O. c #B25908",
"+. c #AA5A12",
"@. c #9C620F",
"#. c #9C6717",
"$. c #A7650E",
"%. c #B0660F",
"&. c #A46B14",
"*. c #A86817",
"=. c #AE6B1A",
"-. c #B16919",
";. c #AA721A",
":. c #B5741C",
">. c #B9751E",
",. c #825927",
"<. c #835D26",
"1. c #856226",
"2. c #83622C",
"3. c #8D672A",
"4. c #986926",
"5. c #866736",
"6. c #8A6B34",
"7. c #926E37",
"8. c #8C713B",
"9. c #92733C",
"0. c #9A7639",
"q. c #AA7127",
"w. c #B97927",
"e. c #A26D3B",
"r. c #A77835",
"t. c #B97C32",
"y. c #C27B28",
"u. c #957542",
"i. c #9C7A45",
"p. c #8B7553",
"a. c #A27D43",
"s. c #B67F4B",
"d. c #887B6A",
"f. c #BB832D",
"g. c #A6813A",
"h. c #BA8737",
"j. c #C2832D",
"k. c #C88A2B",
"l. c #C28B35",
"z. c #C68939",
"x. c #D39539",
"c. c #A58144",
"v. c #AB8645",
"b. c #A98648",
"n. c #B78749",
"m. c #A68457",
"M. c #B89156",
"N. c #85817B",
"B. c #978973",
"V. c #AE976A",
"C. c #BE9A6C",
"Z. c #C38C48",
"A. c #CB9648",
"S. c #D29944",
"D. c #D29846",
"F. c #C28F55",
"G. c #C69956",
"H. c #D19E56",
"J. c #D4A04E",
"K. c #D5A559",
"L. c #C59966",
"P. c #CEA46C",
"I. c #D6A762",
"U. c #CAA374",
"Y. c #C9A377",
"T. c #D2AA76",
"R. c #D9B27C",
"E. c #898884",
"W. c #95928C",
"Q. c #989593",
"!. c #A99D8B",
"~. c #BCA185",
"^. c #A8A39D",
"/. c #A9A7A2",
"(. c #B3AEA5",
"). c #B5B1AA",
"_. c #BBB3AA",
"`. c #BAB7B3",
"'. c #CAAC8A",
"]. c #D7B487",
"[. c #C4AF93",
"{. c #CBB79E",
"}. c #D2B89D",
"|. c #C9B8A3",
" X c #CBBCAA",
".X c #D2BEA6",
"XX c #D3BFA9",
"oX c #C2BEBA",
"OX c #E1C397",
"+X c #D3C3AD",
"@X c #CEC5B8",
"#X c #D5C6B3",
"$X c #D6C9B6",
"%X c #DACBB5",
"&X c #DACDBC",
"*X c #DDD2BE",
"=X c #CDCAC5",
"-X c #D4CDC3",
";X c #DCCFC1",
":X c #DDD3C5",
">X c #D6D3CF",
",X c #DDD5CA",
"<X c #DFD8CD",
"1X c #DBD7D1",
"2X c #E1D6C4",
"3X c #E2D8C7",
"4X c #E1D7CA",
"5X c #E3DBCD",
"6X c #E4DDD2",
"7X c #E8DFD1",
"8X c #E2DFDA",
"9X c #E6E0D5",
"0X c #EAE2D5",
"qX c #E6E2DA",
"wX c #EBE5DB",
"eX c #EFE8DC",
"rX c #F0E9DE",
"tX c #EAE6E2",
"yX c #EEEAE3",
"uX c #F2ECE4",
"iX c #F3EEE9",
"pX c #F6F2EC",
"aX c #F8F5ED",
/* pixels */
"                                                                                                                                ",
"                                                                                                                                ",
"                                                                                                                                ",
"                                                            o $ * 5 I I 9 $                                                     ",
"                                                  . $ 8 I R Q N.W.^.@X>X`.E.9 o                                                 ",
"                                                * Y W._.=X=X-X-X;X,X6X6XqX8XoXP                                                 ",
"                                            . : W.1XtXqX6X6X6X<X,X<X6X6XwXtXyX/.:                                               ",
"                                            $ E.tXtXtX1X6X<X<X,X,X<X6X6XwXtXyX8XY                                               ",
"                                            C >XiXyXwX6X6X4X,X,X:X<X5X9X0XrXuXuXW.o                                             ",
"                                            W iXiXyXeX6X6X5X5X:X:X<X6X9XeXrXuXpX^.$                                             ",
"                                          o E.pXiXuXwX7X6X5X5X:X,X5X6X0XrXrXrXpX/.$                                             ",
"                                          + Q.pXiXuXeX0X6X5X5X:X3X5X5X9XeXrXuXaX).:                                             ",
"                                          & `.aXiXuXwX0X7X6X4X:X:X3X3X7X0XrXrXaX>XI                                             ",
"                                          & `.aXiXrXwX0X7X5X4X:X3X2X2X7X0XwXrXpX1XY                                             ",
"                                          * `.aXuXrXwXwX7X;X2X2X*X%X*X3X7XeXeXuXqXY                                             ",
"                                          I 6XaXuXrXwXwX7X*X4X;X%X%X*X3X7X0XrXrXqX! o                                           ",
"                                        o W.pXpXuXrXrXwX4X4X2X;X+X%X&X2X7X0XrXuXuX^.%                                           ",
"                                        9 =XaXpXiXuXtX0X3X;X3X%X+X#X&X*X7X7XeXrXiX(.%                                           ",
"                                        Y 1XpXpXiXtXwX6X4X;X;XXX.X+X%X2X5X7XeXrXiX).*                                           ",
"                                      o ~ iXpXiXyXwX6X4X4X4X;X.X{.+X#X*X3X7X0XrXuX).&                                           ",
"                                      5 `.pXpXiXtX6X5X6X;X;XXX[.[.|.+X$X2X5X7X0XrX(.&                                           ",
"                                      W tXpXiXyX0X6X4X;X2X%X'.s.n.n.F.L.P.T.T.].OX!.&                                           ",
"                                    $ Q.iXiXiXtX7X5X4X4X2X}.i.g d g ^ ( _ ..%.%.S.i.#                                           ",
"                                    P =XiXiXpXtX8X6X4X4X;X~.S h f h w r h ,.r.q.T.m.@                                           ",
"                                  . W 8XiXpXiXtX6X,X:X;X%XL. . .-.*.4.4.e.F.D.H.R.p.#                                           ",
"                                  . W 8XiXiXuXqX6X:X&X.X}.F. .) +.>.t.t.Z.Z.F.I.].p.+                                           ",
"                                    W 8XiXuXiXqX5X;XXX'.Y.t.X.X.+.y.y.t.t.z.D.H.T.H .                                           ",
"                                  . E.yXuXiXuX6X4X;X#X|.L.+.X./ ` -.>.y.y.Z.D.H.U.V                                             ",
"                                  . E.iXiXpXyX6X4X;X%XXXs._ _ / ) X.:.j.Z.D.D.D.G.V                                             ",
"                                  . E.iXpXiXyX<X:X&X#X].t.X.O.O.` ` -.w.y.Z.D.H.C.y                                             ",
"                                    P >XpXyX1X=X XXXXXU.-.` o.O.+.+.` -.y.z.H.I.i.$                                             ",
"                                    : /.yX8X=X|. X X Xn.o._ / _ / _ ` -.w.k.D.I.8.X                                             ",
"                                    . Y =X:X X{.|.{.Y.*.[ ) ^ ^ ^ ^ [ w.>.l.S.K.A .                                             ",
"                                      $ R _.|.}.[.Y.z... .} j d d g _ =.:.;.j.G.i                                               ",
"                                        o P ! d.C.A.j.*.| j } ^ / ) ` $.&.=.z.v.2                                               ",
"                                            o ; m.K.z.*.m g g ) +.` ( [ :.k.S.7.O                                               ",
"                                              . 0.G.z.&.' ' g } ( ] @.$.>.x.x.2.X                                               ",
"                                              . D h.h.&.' |  .j g ( @.{ :.k.A.G .                                               ",
"                                              . k G.w.@.' ' ..d f c @.@.f.h.J.4                                                 ",
"                                                8 G.h.&.@.' ' d g ( @.&.&.f.A.4                                                 ",
"                                                4 M.l.&.@.' x e g ' | @.#.h.J.< .                                               ",
"                                                > 9.g.&.' x e v f x v M 4.h.M.,                                                 ",
"                                                X D r.4.4.z q 0 w t t c B g.g.>                                                 ",
"                                                X D | x B n 1 # = q x M x 1.6.@                                                 ",
"                                                X J 4.B a a 1 = 1 - b | <.0.K .                                                 ",
"                                                X J g.3.a 0 - - u < r B B 9.L X                                                 ",
"                                                X F r.G v z - = < 1 p A 6.2.F X                                                 ",
"                                                X L c.7.1.B b 1 u s a z 6.b.F X                                                 ",
"                                                X L 9.i.0.K b q t r t N g.b.F X                                                 ",
"                                                X F 3.3.0.1.a z r q v 1.c.b.J X                                                 ",
"                                                X T 0.S B G b 0 - p K K b.v.6.#                                                 ",
"                                                X J 9.n G 1.z 0 p h 6.6.6.g.g.>                                                 ",
"                                                X H c.K n D a q s v N i.u.5.n.>                                                 ",
"                                                X V G p y p w q h N G b.b.u.M.3                                                 ",
"                                                ; D K u y z w w A A G b.8.K 5.2                                                 ",
"                                                2 8.1.A V y w 1 b N <.u.J K u.2                                                 ",
"                                                6 p.5.5.D A m r m } <.a.i.i.V.Z                                                 ",
"                                                9 ! 8 4 8 k < - < u A H H d.!.! o                                               ",
"                                                9 ~ 6 * 5 % o     + : 5 6 E /.N.o                                               ",
"                                                Z B.Z k l 8 ; @ # % ; 6 C Q (.Q +                                               ",
"                                                I B.p.p.T H A p p i 7 8 8 ! _.Q o                                               ",
"                                                & U C ; % + O X o . . X $ l Y *                                                 ",
"                                                  . .                     .                                                     ",
"                                                                                                                                "
};
