/* XPM */
static char *result[] = {
/* columns rows colors chars-per-pixel */
"64 64 252 2 ",
"   c #000000",
".  c #090708",
"X  c #0A0B0C",
"o  c #110E0D",
"O  c #0C0E12",
"+  c #121112",
"@  c #161415",
"#  c #261C19",
"$  c #2D201D",
"%  c #36231E",
"&  c #171C27",
"*  c #1B1F3B",
"=  c #1B222A",
"-  c #1A253B",
";  c #2A2A28",
":  c #392926",
">  c #27312D",
",  c #37342D",
"<  c #2C2F35",
"1  c #222638",
"2  c #393436",
"3  c #4F1E24",
"4  c #701929",
"5  c #442D26",
"6  c #453229",
"7  c #4B342B",
"8  c #4C2D34",
"9  c #493934",
"0  c #543A32",
"q  c #5A3C33",
"w  c #593934",
"e  c #69272C",
"r  c #633B36",
"t  c #773938",
"y  c #2B4239",
"u  c #58433A",
"i  c #405F3F",
"p  c #67463B",
"a  c #76483D",
"s  c #6A5A3B",
"d  c #68663E",
"f  c #191B48",
"g  c #2E1B51",
"h  c #192447",
"j  c #0B3E47",
"k  c #1A3A49",
"l  c #192359",
"z  c #273547",
"x  c #2E3452",
"c  c #1A286A",
"v  c #26376C",
"b  c #4C3751",
"n  c #703049",
"m  c #0A444B",
"M  c #164449",
"N  c #0A4854",
"B  c #174755",
"V  c #155755",
"C  c #2C4847",
"Z  c #344747",
"A  c #39584B",
"S  c #254A57",
"D  c #324E50",
"F  c #2B565A",
"G  c #375855",
"H  c #19624B",
"J  c #246149",
"K  c #36645C",
"L  c #0E5767",
"P  c #175968",
"I  c #0A5B70",
"U  c #294564",
"Y  c #295764",
"T  c #344D71",
"R  c #126878",
"E  c #396467",
"W  c #38766A",
"Q  c #2A6D73",
"!  c #276978",
"~  c #367A78",
"^  c #565749",
"/  c #4D5050",
"(  c #6D4D43",
")  c #784C42",
"_  c #6B5747",
"`  c #795548",
"'  c #6A4F54",
"]  c #775C51",
"[  c #506950",
"{  c #5B645A",
"}  c #686858",
"|  c #796558",
" . c #6E7053",
".. c #484D68",
"X. c #445579",
"o. c #436865",
"O. c #556A64",
"+. c #4C796A",
"@. c #477977",
"#. c #557272",
"$. c #73736B",
"%. c #980B16",
"&. c #AA0C1F",
"*. c #BA051B",
"=. c #8D1C28",
"-. c #AE1527",
";. c #8B2F33",
":. c #B53632",
">. c #D21524",
",. c #8A4B36",
"<. c #AC5731",
"1. c #BB7331",
"2. c #CC4D36",
"3. c #CB772B",
"4. c #943B4A",
"5. c #913454",
"6. c #CB3D53",
"7. c #854C45",
"8. c #984849",
"9. c #875449",
"0. c #8C5B4C",
"q. c #95594C",
"w. c #8F5D51",
"e. c #935C53",
"r. c #9A5D53",
"t. c #A94F52",
"y. c #A65B56",
"u. c #95644B",
"i. c #896756",
"p. c #8C6C57",
"a. c #9B6353",
"s. c #9D6A54",
"d. c #966958",
"f. c #9C6C59",
"g. c #A76F55",
"h. c #A66558",
"j. c #A46B5B",
"k. c #AA6C5D",
"l. c #B1695E",
"z. c #88736B",
"x. c #9B7666",
"c. c #A86961",
"v. c #AC6D63",
"b. c #B36D63",
"n. c #B36F68",
"m. c #A37462",
"M. c #AC7364",
"N. c #A77967",
"B. c #AD7D6B",
"V. c #B37264",
"C. c #B37B64",
"Z. c #B97468",
"A. c #B37D6B",
"S. c #BB7C6A",
"D. c #B67E74",
"F. c #CA5550",
"G. c #ED555F",
"H. c #C27A6D",
"J. c #C47A72",
"K. c #37876C",
"L. c #6C8551",
"P. c #50886D",
"I. c #4C847B",
"U. c #568977",
"Y. c #6A8667",
"T. c #6A8C73",
"R. c #9A8F69",
"E. c #AD856D",
"W. c #B68068",
"Q. c #BC826C",
"!. c #AB8473",
"~. c #B88776",
"^. c #96A47B",
"/. c #A3AB77",
"(. c #D79049",
"). c #D2B453",
"_. c #C1846D",
"`. c #C88779",
"'. c #D68D7B",
"]. c #C6917E",
"[. c #263785",
"{. c #194089",
"}. c #344E88",
"|. c #3B5687",
" X c #365397",
".X c #0F6F83",
"XX c #2D738A",
"oX c #3D5AAB",
"OX c #48588E",
"+X c #6B4A90",
"@X c #51718B",
"#X c #4A6798",
"$X c #70768D",
"%X c #435DA5",
"&X c #4A6BA6",
"*X c #6A78A6",
"=X c #8D7A98",
"-X c #2F8B8F",
";X c #108BAF",
":X c #3090AD",
">X c #3FA0B4",
",X c #558783",
"<X c #508C8D",
"1X c #539496",
"2X c #6C908E",
"3X c #5CA39F",
"4X c #6BA796",
"5X c #78B79C",
"6X c #4D95AA",
"7X c #7489AA",
"8X c #55A2A3",
"9X c #4FA9B4",
"0X c #69B2AD",
"qX c #7DC49F",
"wX c #7CC5AA",
"eX c #0C90C6",
"rX c #3A85C3",
"tX c #3CADC3",
"yX c #4AACC5",
"uX c #62B7C4",
"iX c #54C4D2",
"pX c #6ECBCB",
"aX c #828A8F",
"sX c #B09089",
"dX c #91AB90",
"fX c #A7B783",
"gX c #A9B58C",
"hX c #8A92A7",
"jX c #B396A4",
"kX c #8DAAA3",
"lX c #B5B0AF",
"zX c #CE8E86",
"xX c #CA9686",
"cX c #D69A89",
"vX c #DAA18F",
"bX c #DCA492",
"nX c #EEA695",
"mX c #D3B3A6",
"MX c #F3B6AC",
"NX c #85CEB2",
"BX c #B2C3AB",
"VX c #87B3C6",
"CX c #B5ABC3",
"ZX c #A8CAD6",
"AX c #9ED8E4",
"SX c #A3D6E2",
"DX c #D5D6CB",
"FX c #E1DED9",
"GX c #E1E7DD",
"HX c #D4DFEC",
"JX c #EBEFEB",
"KX c #F7F9F8",
/* pixels */
"                                                                                                                                ",
"                                                                                                                                ",
"                                                                                                                                ",
"                                                                                                                                ",
"                                                    .           - OX..+                                                         ",
"                                                  O 1 ..#.@X$X$XhXhX*Xx +                                                       ",
"                                            . & T 7XVXZXHXHXGXKXKXKXJXHXlX=Xz @ .                                               ",
"                                          O v *XVXAXSXKXGXDXDXFXKXKXFXDXJXKXJX2Xz h O                                           ",
"                                        @ |.6XyXAXHXZXJXDXmXjXjXMXFXmX=X=XFXJXhXD OX@Xz .                                       ",
"                                      @ OX6X6X6XpXSXZXBX7X%X+X+X6.J.zXH.$.z.mX$.Z o.2XhXb @                                     ",
"                                    . T oXeXeX:XuXkXlX*X[.X.+XCXjXsXJ.6.F.e.mX{ Z { a.F.t...@                                   ",
"                                    = OX.X;XeXeX;XlXlX..n 4.n G.(.`.=X5.&.-.D./ Z / i.F.2.v...X                                 ",
"                                    U @XU XXeXeX.X1X<X..:.>.n 6.:.3.R.[.g 4 =.g Z F T.sX'.S.X.z                                 ",
"                                  O OX7XB XXyXeXeXeXXX7.>.>.n b 4.5.( h f c g : C S $.2XdXsX#.T @                               ",
"                                  & OXaXS P 0XXX;X.X#.' =.>.4 c c l * & - v {.f z B @XQ B @XaX$Xx                               ",
"                                  x $XhXS B 3X-X.X~ E U n -.7.D l g & = = = c f x B XXP m E { X.OX&                             ",
"                                X |.Q U.#.M ,XXXW K.~ R R / w ^ / 2 3 = 3 4 4 c c k Q L m K o.X. XU .                           ",
"                                = %XQ U.,XM #.$.O.P.@.XX! S z ; , e 4 3 &.*.4 c l B ! L m V C K |.X..                           ",
"                                z &XU K.U.2 } e. .} +.W -XY - = 8 b 8 8 *.*.4 c l M ! N m N N B |.OXX                           ",
"                                x &XU P.$.q ,.:.,.} @.-X~ E k h l {.l 2 =.*.=.g l B P N N N N k T #X@                           ",
"                                T %XU  .u.<.3.<._ +.~ R XXP B k * c l z ;.*.;.$.M B L j N N N B }.#X&                           ",
"                              . OX#Xv ,.1.(.3.d +.W R R .XI Y B k f h Z =.&.x.| D P L j m N B S }.#X&                           ",
"                              O OXoXU u.).1.,.O.R .X.X.XI L P Y F h * g =.&.9.p M P L j m m M B }.#X&                           ",
"                              & oX XT R.3.<.z.U..X;X;XXX.XI ! E Y F < 8 =.%.e ] K P L j m j S v }.#X=                           ",
"                              O  XoX Xg.2.u.$.T.-X-X-X-XQ Y @.@.F o.;.a ;.=.w | o.Q L m m m B U }.#X=                           ",
"                              O XXrX#Xh.2.y. .Y.E E K K K J A D G O.;.;.z. .^ Y.+.W Q H H H F U }.|.&                           ",
"                            O ! tXtX>X1X2Xi.}  .{ _  .s d d [ [ ^ d ,.=.| } { T.P.K.K.H H J A T {.T =                           ",
"                          . G pXiXiXiXiXyXtX0X0X5X4XU.L.L.L.d L.L.L.s ,.d s  . . .d d i A A / Y ! ~ <                           ",
"                            G 0X0XpXyXyXyX9X8X0XNXwX0X4XqXU.U.U.+.@.T.Y.Y.^  .Y.T.Y.+.W @.I.K.I.<X<XW X                         ",
"                            + o.<X1X1X1X6X1X1X,X4X7XBXBXgXkXkXkXdXdXdXdXdXT.T.4XT.1X8X8X6X>X:X:X9X0X0X>                         ",
"                              X - K o.@.,XI.<X,X$.z./.)./././.^.fX^.^.fX^.fX/.fXfXdXdXkX5X9X9XyXuXpX0X>                         ",
"                                X 2 | $./ / D A o.O.Y.Y.U.P.@.,X,X@.I.,X,XqXNXqXqXqXqX5X4X8X9X9X1X1XF X                         ",
"                              o p.] E.E.p.] 9 : % ; > > > y y Z C C C D F P.U.U.U.U.W K F K E o.Z = .                           ",
"                              @ C.f.E.E.m.d.] s p u 7 6 6 7 q u u 9 9 9 9 , , , , > > ; , ^ i.z.u : .                           ",
"                              @ y.s.~.~.m.f.i.` u % $ $ % 7 q p u q w w 7 6 5 : 6 6 u p ` ] p.x.] d.#                           ",
"                              o a.j.].Q.m.f.u.p 6 , @ o ; % 7 r p w 7 7 5 5 $ @ @ # : p | i.p.x.i.9.X                           ",
"                                9.A.].Q.C.m.f.0.s p : # 5 % 5 w r q 7 7 5 % % @ @ : , 6 _ | p.x.d.a .                           ",
"                                ( S.].`.W.B.m.h.a.9.p q w w w r a a r u 6 5 % 5 % 5 q p ` i.p.!.d.%                             ",
"                                ] '.xX].~.Q.A.j.d.e.0.9.) ) ) ) 7.) a p q 0 q q p p a s 0.d.x.!.` .                             ",
"                              . D.nXcX].'.].S.M.h.f.j.d.r.e.q.9.q.9.7.a a a a a ) ` ` 0.d.m.!.~.(                               ",
"                              . ~.MXvXcXcXcX`.H.H.b.b.l.b.b.j.h.r.q.9.9.7.9.e.0.e.0.a.j.M.B.!.!.w                               ",
"                              X xXMXbXbXcXcXzX`.J.J.H.b.b.l.Z.Z.l.h.r.r.0.0.c.j.h.h.c.v.M.B.~.D.5                               ",
"                              o sXnXcXbXvXcX'.`.J.J.H.n.y.b.J.H.H.Z.l.r.r.e.k.b.b.v.v.v.N.D.sXB.#                               ",
"                                5 ` xXbXvXzX'.`.J.H.H.l.l.y.y.y.n.b.l.q.r.e.h.V.V.b.v.V.n.B.~.N.@                               ",
"                                  o sXbXvXzX'.J.J.Z.b.b.n.y.8.t q.q.7.t ) 8.h.k.V.v.v.n.M.!.!.0 .                               ",
"                                    !.bXcX'.`.`._.Z.b.b.S.n.v.y.8.7.7.7.9.r.k.v.M.V.v.M.M.D.p..                                 ",
"                                    z.vXxX`.`.S.S.V.V.Z.Z.n.b.v.c.y.r.e.w.a.h.v.k.k.m.v.M.!.]                                   ",
"                                    ] xXzX`.D.S.V.M.k.k.n.n.c.t.y.l.b.r.e.a.a.a.h.h.j.j.m.!.^                                   ",
"                                    u xX].~.A.V.M.g.q.q.h.t.8.4.4.8.8.8.q.q.0.9.q.a.d.f.N.!.9                                   ",
"                                    , ~.~.A.A.C.V.a.,.a 8.8.4.;.;.;.t t t t p a 0.r.f.m.x.x.#                                   ",
"                                    o x.A.B.A.S.C.s.u.a.y.t.t.t.t.4.8.8.8.7.9.u.u.s.j.m.N.| .                                   ",
"                                      u A.B.A.Q.C.C.Z.Z.Z.l.t.t.t.8.8.q.r.s.a.s.a.s.m.x.N.9                                     ",
"                                      @ p.W.B.W.W.W._._._.C.l.h.r.q.r.h.h.j.f.s.s.f.m.N.| o                                     ",
"                                        7 m.N.M.C.W._._._.S.C.l.l.y.h.h.g.k.g.f.g.f.x.x.:                                       ",
"                                        . ( m.M.g.W.Q.Q._.C.H.C.Z.b.l.k.j.m.g.f.m.f.x.u .                                       ",
"                                          @ ` m.m.W.Q.Q._.Z.H._.H.Z.Z.k.g.g.m.f.f.p.u                                           ",
"                                            o u d.m.W.Q._._.H.Q.C.Z.b.k.j.j.j.f.i.0 .                                           ",
"                                              . 5 i.m.B.C.A.S.V.b.g.k.j.j.s.d.` : .                                             ",
"                                                  + 6 9.f.h.v.j.s.a.a.e.` ( 6 o                                                 ",
"                                                      . # : w p p 0 5 # @ .                                                     ",
"                                                              . .                                                               ",
"                                                                                                                                ",
"                                                                                                                                ",
"                                                                                                                                "
};
