/* XPM */
static char *ddf7b2928c12429fe4b9f5d3cadcdb4dJbtax8dtVgVcDyy1[] = {
/* columns rows colors chars-per-pixel */
"64 64 254 2 ",
"   c #1C0700",
".  c #250A01",
"X  c #370D00",
"o  c #2A1707",
"O  c #371806",
"+  c #361F15",
"@  c #3E230E",
"#  c #3D2415",
"$  c #451C06",
"%  c #4A1300",
"&  c #48240B",
"*  c #57270C",
"=  c #432613",
"-  c #482A17",
";  c #552B14",
":  c #5C2C14",
">  c #562D19",
",  c #58331B",
"<  c #513117",
"1  c #652B08",
"2  c #64341B",
"3  c #6D3A1B",
"4  c #673619",
"5  c #7C3C1C",
"6  c #773A16",
"7  c #6B310F",
"8  c #4D3424",
"9  c #583927",
"0  c #4E3427",
"q  c #6C3D24",
"w  c #633925",
"e  c #763D25",
"r  c #653D33",
"t  c #7B411C",
"y  c #77441F",
"u  c #6E401E",
"i  c #5E4229",
"p  c #5A4737",
"a  c #64432D",
"s  c #6B452A",
"d  c #744323",
"f  c #7C4425",
"g  c #73442B",
"h  c #7B452A",
"j  c #734B2E",
"k  c #7B4B2C",
"l  c #7C4A25",
"z  c #7D502D",
"x  c #654934",
"c  c #6B4C34",
"v  c #6C4D3A",
"b  c #684736",
"n  c #744B33",
"m  c #7C4C33",
"M  c #764937",
"N  c #68513B",
"B  c #735035",
"V  c #7D5233",
"C  c #74543B",
"Z  c #7C533B",
"A  c #7B593C",
"S  c #644E44",
"D  c #695545",
"F  c #7B5B44",
"G  c #745C4B",
"H  c #775946",
"J  c #74584E",
"K  c #7B634C",
"L  c #7B6855",
"P  c #6F6156",
"I  c #7D6D63",
"U  c #5E4E41",
"Y  c #853D18",
"T  c #843308",
"R  c #843F20",
"E  c #83431D",
"W  c #8B471A",
"Q  c #984C1C",
"!  c #98511F",
"~  c #89410F",
"^  c #A44E1B",
"/  c #854523",
"(  c #8A4523",
")  c #854B25",
"_  c #8C4A25",
"`  c #844B2C",
"'  c #8C4C2C",
"]  c #87452A",
"[  c #934C24",
"{  c #9B4D23",
"}  c #934C2C",
"|  c #994D2C",
" . c #924527",
".. c #85522D",
"X. c #8B522C",
"o. c #8B552B",
"O. c #945226",
"+. c #9C5224",
"@. c #94532B",
"#. c #9B542C",
"$. c #9C5A2C",
"%. c #975A2A",
"&. c #844C33",
"*. c #8C4D32",
"=. c #8A4C3B",
"-. c #864535",
";. c #934D32",
":. c #9B4E33",
">. c #934A37",
",. c #845334",
"<. c #8C5434",
"1. c #8C5A36",
"2. c #84543C",
"3. c #8C553A",
"4. c #84593C",
"5. c #8C5B3C",
"6. c #855937",
"7. c #935334",
"8. c #9A5434",
"9. c #935B34",
"0. c #9C5B34",
"q. c #94553A",
"w. c #9A553A",
"e. c #945B3C",
"r. c #9C5C3C",
"t. c #A25525",
"y. c #A2552B",
"u. c #A35C2B",
"i. c #A85A2A",
"p. c #A35C33",
"a. c #AC5D32",
"s. c #A25C3B",
"d. c #A45839",
"f. c #A9552F",
"g. c #8D613D",
"h. c #86613D",
"j. c #9D6135",
"k. c #95623C",
"l. c #9C633C",
"z. c #986439",
"x. c #A7622E",
"c. c #A46234",
"v. c #AB6334",
"b. c #AD6935",
"n. c #A4653B",
"m. c #AB653B",
"M. c #A5693D",
"N. c #AC6B3C",
"B. c #B36433",
"V. c #B36B3C",
"C. c #B26838",
"Z. c #B6723D",
"A. c #AE703F",
"S. c #845B43",
"D. c #8B5C43",
"F. c #875845",
"G. c #945C42",
"H. c #9B5D42",
"J. c #945542",
"K. c #874E43",
"L. c #A35E42",
"P. c #8B6243",
"I. c #84644B",
"U. c #8C644B",
"Y. c #8D694D",
"T. c #846547",
"R. c #946344",
"E. c #9B6443",
"W. c #9D6A45",
"Q. c #93654A",
"!. c #9B654B",
"~. c #946C4C",
"^. c #9C6B4B",
"/. c #966847",
"(. c #9D714D",
"). c #846C55",
"_. c #8B6B53",
"`. c #896956",
"'. c #946D54",
"]. c #9C6C52",
"[. c #956C5A",
"{. c #8D7255",
"}. c #8D735D",
"|. c #887458",
" X c #947254",
".X c #9C7353",
"XX c #94745C",
"oX c #9B755B",
"OX c #9C795C",
"+X c #98795B",
"@X c #A46443",
"#X c #AC6442",
"$X c #A46B44",
"%X c #AB6C43",
"&X c #A36D4B",
"*X c #AB6C4A",
"=X c #A6664B",
"-X c #B26D43",
";X c #B36D4A",
":X c #B56843",
">X c #AD7143",
",X c #A4724C",
"<X c #AD724B",
"1X c #B27244",
"2X c #B4744C",
"3X c #B9764B",
"4X c #A26C52",
"5X c #A37454",
"6X c #AA7553",
"7X c #A3755B",
"8X c #A37A5C",
"9X c #A97A58",
"0X c #B77953",
"qX c #897667",
"wX c #937663",
"eX c #937B63",
"rX c #9B7B63",
"tX c #9B7D6A",
"yX c #967968",
"uX c #967E73",
"iX c #896F60",
"pX c #A37D63",
"aX c #A57B65",
"sX c #A9805E",
"dX c #9D8265",
"fX c #9C836C",
"gX c #95826B",
"hX c #9A8775",
"jX c #A48265",
"kX c #AA8365",
"lX c #A3836A",
"zX c #AA846B",
"xX c #AA8A6D",
"cX c #A68A6B",
"vX c #B38869",
"bX c #A38673",
"nX c #A48C74",
"mX c #AC8A73",
"MX c #A48D7B",
"NX c #A98E7B",
"BX c #A58577",
"VX c #B08C75",
"CX c #A5927D",
"ZX c #AC927C",
"AX c #A79071",
"SX c #B5947B",
"DX c #A8906E",
"FX c #9B8E84",
"GX c #A78F81",
"HX c #AC9383",
"JX c #A99586",
"KX c #B39682",
"LX c #B59B86",
"PX c #B8A086",
/* pixels */
"Z Z F.`.I.`.`.F F.Y.U.C v v 0 + o o . 0 G }.).eXHXSX'.9 & @ # # = - - 8 - i G iXyXJ uXqXuXqXD G G v S b 0 +   o + o # 8 p p U p ",
"Q.F.F.F.D.D.D.m D.Q.]..X'.oXrXlXgXL I.[.oXoXoX[.[.aX].3.A s 9 9 S M b g g S.XXbXbXrXaXtXVXtXuXaXlXbXBXMXiXJ S S P P ).}.hXCXJXJX",
"7.7.;.*.<.' ' ' 7.X.7.7.<.&.3.~._.a =.>.*...7.} >.>.:.w.e.q.q.H.w.H.w.r.r.9.7.7.<.w.*.q.H.J.G.G.U.U.wXyXuXLXJXHXhXeX).G D 9 D J ",
"8.0.0.8.w.7.8.0.} } 8.7.7.w.3.5.wXS.J.| 8.| | | :.:.:.;.' ' ;.>.:.:.|  .| 8.8.#.| 8.8.w.L.H.q.q.2.S.[.rXtXuX[.I.G i C rX_.< > a ",
"w.8.;.<.w.q.;.*.} 8.w.;.7.q.&.m tX'.>. .} } | :. .;.:.;.;.:.:.| ;.>.8.;.7.7.} 7.w.7.q.H.7.H.q.r.G.G.h.+XXXn K.&.j j h.~.vXoX2.g ",
"' *.*.' ;.*.' *.7.} *.*.7.q.=.2.bX[.-.:.}  .| >.:.:.;.;.' | | |  .;.;._ 7.7.7.w.H.q.>.H.w.w.H.w.8.w.4.oXoXg K.>.k ,.~.(.&XJ.&.=.",
"/ _ ' / / / ' @.( / _ } 7.7.` m hX}.-.| } ' :. .:.:. .| ;.'  .| ;.| ;.7.;.*.*.*.q.H.q.H.r.8.d.8.>.e.Q.OX[.m -.K.-.3..X].<.` =.m ",
"@.' _ E E ) _ _ _ W _ _ X.' *.2.mXwX;.} ' ' :.:.:.| |  .;.;.:.7.;. .:.7.;.*.q.3.3.J.J.w.r.w.| d.>.w.4.OXoXm -.-.=.].^.3.-.-.-.-.",
"' _ ' ' / / ( ;.} _ ( @.7.' *.=.mXXX*. .;.*.>.:.:.{ | | | :.| :.;.:.;.;.>.7.8.;.q.q.H.w.r.w.:.d.w.q.S.aXaXK.-.-.3.<.k h -.-.=.h ",
"' ' 7.' ' *.' _ / } 7.} ' ' *.2.aX[.q.>.m &.J.>.:.} | _ } ;.] *.;.=.] >.w.8.7.q.3.H.q.-.*.-.q.>.w.=.Z mXoXe -.-.-.h d m &.h e M ",
"q.3.e.3.3.G.q.q.r.7.w.r.H.G.D.F.NXF.r M v b H H =.2.6.<.3.3.2.D.2.J.G.7.7.7.7.<.1.e.3.D.G.J.J.J.J.J.F.aXaXK.J.K.M K.D.F.K.K.F.K.",
": : : ; * ; > 2 2 2 q w : w w M iXJ > $ O o . . . . O X X X X O $ X * $ * d d d d * & $ & ; > w M 2 U.HXuXr > w w r q r w 0 r r ",
"v H }.wXwX}.).F S._.}.v b G L qXI qXyXyXuXhXuXqXP P K G F S.L `.}.[.lXbXrX[.wXfXqX|.L D G K F U.XXXXJXJXJXD 8 N K D N p r 9 p U ",
"rXlXlXtXrXlXwX'.rXXX X`.`.bXbXhXMXwXeXfXfXBXGXBXFXFXHXHXmXjXoXXXxXxXpXmXaXXXgXyXgXhXhXhXCXmXSXSXjXDXAXdXmXhXZXZXZXSXPXPXJXGXhXhX",
"9.e.k.e.e.E.E.r.=XE.l.@X!.E.G.G.Q.5.R.R.e.D.R._.hXqXoX.XW.$X$X,X@X%X$XW.D.~.BXZXFXgXL _..X,X$X@X<X$X1.1.!.E.E.W.&XW.5X6X7X].'.[.",
"@.@.#.s.p.@.} 8.O.8.0.s.r.9.7.<.7.7.7.' @.7.q.^.ZXyX7X6XM.m.m.c.m.u.1X*X^.7XjXNXgXhXbXOX(.%Xv.V.m.c.v.-X-X;Xn.m.s.#X;Xs.8.H.e.*.",
"_ O.@.#.#.#.y.d.d.} / *.' 7...o...<.}  ./ 7.3.8XxXoX^.*X@XM.M.N.n.m.*X$X,XM..XdXfXhXlXaX*XV.V.i.m.M.N.:X:X3X3X1X2X2X;XL.*X=Xk * ",
"#.O.#.O.+.y.$.d.| 8.' @.X.o.0.0.o./ _ | s.9.!.oXSXrX^.&Xn.M.>X%.0.n.%X0.o.o.g.sXfXeXbX~.r.1XZ.C.>X2X3X3XV.C.1X1X3X2X;X:X;X@X6X5X",
"{ d.y.f.p.| #.p.p.| | [ { { [ s.n.0.v.y.O.$X1.oXDXjX.X&X$XM.z.M.%Xp.#.7.j.j.9.h.rXdXoXR.%XV.V.Z.>X2X-X-XA.A.Z.>X>X-XN.;X;X%X9.j.",
"#.y.d.( / 7.8.7.} } Q  .#.Y } #.7.@.#.#.0.z.6.jXDXcXg.E.,Xl.>XM.M.n.n.n.M.j.z.g.C {.oXD.<X;XV.A.1X3X3X1XA.A.A.1X%X0Xs.:X#X-Xs.n.",
"w.8.G.R.e * 2 2 l X.r._ @.7.<.e.e.e.8.7.W.R.5.lXfXK ~.6X6X<X$Xl.$X,X6X*X6X0X,XV a N XX4.5.6X0X>X2X*X0X0X0X0X1X3X0X%X0X2X;X*X*X:X",
": 2 , @ - a < & , 4 4 * 2 : s s q 3 : : 4 c & 8 9 + , q q k k 5.V k m 4.h 1 * < < K lXb ; 2 j s : : 2 3 e ` 3 3 f 6.3 4 h &.3 * ",
"9 F N D |.I L I K K L I.).x i 8 N K U.XX_.S G P P I 8 o O @ 8 # @ 9 9 9 w n F L I uXqXL N O     O + # = = & = = @ O - p @ - = - ",
"bXbXCXCXCXhXhXhXCXfXfXnXhXgXCXJXJXCXCXZXbXGXJXJXJXJXGXJXLXLXJXJXJXLXKXKXSXPXKXKXJXGXJXJXHXgXqXqXFXGXhXGXNXbXZXZXZXLXZXLXZXLXKXNX",
"rXpXoXoXOXU.Q.'.'.[.`.`.{.}.fXgXgXCXDXcXxXzXlXmXzXzXaX6X9XvX9XsX8XOX8X8X5X&X,X5XkXkXzXpX8XjXZXfXyXuX[.oX4X4X!.4X~.].=X!.!.=X!.!.",
"~.P.4.5.^.G.e.D.F.G.F.F.F H H A j ~.8X5X5X(.^.5X&X$X%X1X-Xn.%.j.M.$XW.k.0.m.M.M.W.(.&X,X6X9XkXdXAXrXK.!.L.L.H.r.@Xw.w.L.J.:.J.!.",
"6.6...9.@Xr.9.e.2.F.F.I.I.I.{.OX&X<XM.j.M.$X&X$X*XM.N.N.V.V.#X%XM.M.>X>X%XV.N.N.N.>X%X$X%Xk.~.dXfXrXF.4XL.L.L.r.w.w.s.d.w.r.@XE.",
"` ..X.9.l.0.8.e.J.U.F.F.h.A K  Xr.N.N.1X-Xm.M.M.N.V.V.V.C.V.1X-XN.N.A.1X1XC.b.A.m.M.v.-X;Xl./.8XdXdXQ.=XL.L.n.@Xs.r.s.d.L.2X<X,.",
",.` ` <.9.w.q.3.3.F.4.S.I.C _. Xl.m.N.A.1XA.>X>XV.Z.Z.Z.Z.B.b.b.V.Z.-XN.m.V.C.b.b.N.C.V.m.m.^.~.+X+XP.E.r.s.w.0.7.7.r.r.8.<.1.,.",
"7.<.` <.<.5.e.e.D.G.D.S.F v |. Xl.1XA.M.M.N.$XN.:XV.b.b.Z.Z.>XN.c.b.;X*XN.b.b.V.m.1XV.V.N.<X,XP.A +XP.D.H.H.H.w.k.<.<.3.<.<.1.1.",
"' *.` &.&.2.D.D.G.G.P.4.m c }.U.l.-Xc.j.b.-XN.m.V.V.:XN.Z.>Xz.1.0.0.@X@X%X*X>X1X<X1Xm.%X2Xk.m 9 K qXB g m q.H.H.e.G.!.G.G.H.H.G.",
"*.=.&.2.S.D.P.S.S.V j 4.B C }.C d r.,X,XW.@.7.&XL.L.*XW.1.u * : 1...d 3 k ^.^.D.5.e.6.<.k * < b hX|.- < M F m Z m F.F.F.F.F.=.h ",
"b C v v H b x a N a 9 9 9 H G K B ; + O . . o @ O $ + + O = g _.C a c x x # @ o - - - i p ).yXhXCXhXqXgXfXyX[.rXfXfXnXMXbXwXqXNX",
"`.XXeX}.).}.XXrX+XdXdXlXeXdXXX XY.F G S N D i i S S S D K ).wXdXZXmXnXZXnXgXqXqXuXFXJXGXHXCXMXMXLXJXMXCXKXSXNXKXNXHXmXMXGXHXHXKX",
"zXOX8XkX8XxXkXkXjXkXaX9X8X5X7X].P.7XpXzXfXdXhXhXuXuXMXhXCXnXhXcXjX8XzXjXrXKXhXqXhXHXZXcXxXzXlXzXlXzXaXoX7X[.'.].8X8X8X.XQ.'.'.D.",
"R.1.g.g.g...1...9.<.o.9.k.9.9.o.r.H.1.l.g.T.wXN J wXtX_.Y.OXeX_.~.!.^./.~.pXaXwXyXrXY.U.R.].!.].!.4X].!.!.!.H.R.G.E.!.!.e.q.G.H.",
"$.0.p.$.p.p.p.b.@.Q y.$.v.y.+.+.[ u.c.x.M.k.F ).[.=XL.q.8.0.r.q.L.L.;X=X4X/.B jXlXY.5.h ' ] ;.] q.R.!.r.H.H.q.q.H.r.E.H.7.' 8.0.",
"v.i.i.i.y.t.Y t.B.t.B.i.i.t.+.t.$.Q i.B.a.0.I.XX!.J.:.d.a.f.d.@Xs.:XL.3X*X` s ~.pXg.<./ ( ( ;.] R ' ;.8.w.w.q.7.7.<.;.7.;.7.8.;.",
"t.{ y.y.{ Q T t.t.t.u.u.t.+.! ^ +.t.^ ^ { } `.`.R :.a.a.f.a.:Xs.=Xd.L.#X8.5.g..X X4.' 8. . .} ' ] *.*.;.*.] ] *.` *.` ) ' 7.} _ ",
"{ ^ Q Y { t.{ Q t.t.+.t.t.+.t.+.Q Q ^ ^ { >.S F.e  .f.a.f.a.a.s.#X;X:Xd.0.) g.~.~.5.X.} :. .} } ' ' ] ] *.] *.w.` *.-.] ' ' ;.r.",
"[ %.W ! O.W +.! +.t.+.! t.! ! ! Q t.! ! +...a 9 >.d.d.p.m.f.L.s.q.' ( } 8.@X5.~.'.5.<.7.] | 7.8._ _ ( ] ] ' 7.H.q.` f h 7.e.e.r.",
"t o.z.j.o.%.o.%.O.O.O.+.p.#.0.#.O.@.$.! 9.1.9 a D.7.q.1.e.<.` 3 : : -.<.e q & U.S.Z G.E.3.q.,.: d <.5.3.e.<.2.G.2.g 2 w g d m V ",
"j k 4.m n &.u * * e &.l ` ` <.) 1.o.) d 4 O 9 gXU.n a @ O O O = @ 9 9 ; ; b J qXK r > w w > - - 9 = 9 w & - - O O = 8 9 9 0 # o ",
"F n x B v j n g F.m 9 ; ; ; > , : < & * 4 C eXgXrXzXK G ).L eXhXGXBXrXwXVXKXNXbXuXH r C b F.[.tXv - O . O 8 0 x ).yXMXMXMXGXyX`.",
"|.tXdXrXpXlXbXmXlXlXrX+XdXdXcX{.dX{.dXjXxXSXSXDXVX8XjXzXpXzXzXoX].8X/.g./..XsX8XaXaX6XsX&X9X5X!.xXwXwXXXxXmXkXkXsXOX~.+XoXjXrXoX",
"XX)._.K I.I.F _.I.C c I.{.{.{.K A ).dX'.,X,XW.z.k.W.E./.l.l.e.H.E.e.l j.l.z.,X,X<X<X$Xz.M.m.$X6XpXoXoX~.9X9X6X6X,X,X,X,X5X,X,X&X",
"j A Y.B s k u s f k z ,.z 6.6.6.x G XXQ.z.%.%.o.E o.j.%.c.Z.0.n.n.c.%XA.c.j.o.$X0X0X3Xb.c.v.-X@X(..X5X/.,XM.M.j.M.Z.1XA.N.N.N.N.",
"P.P./.6.u u f d ,...h 1...g.g.h.K N aXe.) +.O.+.$.c.c.x.x.b.m.v.y.-Xv.c.b.j.b.W 0.1Xb.%.$.x.p.n.,.P.6X$XM.M.A.x.Z.A.Z.Z.3XZ.Z.C.",
"h.h.g.V P.,.h j z z z V z 5.V s B C .X7.@.$.+.m.c.x.x.c.b.u.+.v.m.v.i.B.x.b.c.%.6 ~ ~ u.B.p.m.0.,..XR.$Xm.c.b.Z.V.N.N.M.b.V.b.t.",
"A V P.h.l ,...k k d z V d 6.6.k 9 B 5Xl.O.! s.p.u.x.x.x.u.u.B.V.V.a.a.B.B.C.v.$.V.m.B.C.u.p.p.@Xj 5.g.z.n.u.N.c.c.v.m.c.%.+.t.x.",
"g j g.,.h ,.&.,.3.5.6.h h 3.&.&.w V *X@.u.y.p.0.x.u.i.c.v.b.C.b.N.8.f.a.a.+.a.;X:X:XC.a.v.#._ w.s 5.5Xe.M.N.O.#.m.0.@.O.O.+.t.t.",
"j M P.S.=.m 2.g 6.g g m m M h M n V 6X%.%.0.@.@XM.c.p.N.#XV.N.m.0.m.m.C.p.+.@X@X;X;X#X@.E % X % & {..X6.e.X.O.n.0.0.0.n.s.$.u.$.",
"A _.rXS.Z n A D.D.S.S.S.b w w n H a Q.h l ,.V m y ) <.9.k.r.%.k.l.%.W %.9.` l m h q e : @ @ i x }.bXXXV d d ` ..' &.&.` f R *.8.",
"XX_.+Xa O $ & & , w , & $ $ $ ; < c .X'.~.Y.Y.K 5.W.4X&X9X6X(.,X(.l.>X$X<X9X4.C b w Z `.{.ZXAXnXfX_.oXY.~.9X5X&X^.!.~.5X5X6X6X4X",
"dXcXcXS.s B a 2 a a c T.S.Y.U.'._.rXjXjXsXjX+X{..X6X,X&X$X,X,X,X,X,X0X2X<X,XR.rXvX].F.Z P.dXA c j 4.z z o...9.9.E.k.k.k./.W.&X&X",
"Q.~.~.P.^.~..X5X(..X~..X^.7X].7XY.4./.k.g.h.C s R.z.$X<X%XN.$XM.M.>X>X>X<XE.].8Xm f ,.1.W.R.k.l 3 z.z.*XM.M.M.j.j.9.9.k.9.1.z.o.",
"O._ @.6 @.W t ' ' ) / ' 0.n.l.r.` e f <...y s D.@Xm.a.B.B.i.x.b.c.c.v.a.0.1.1.(.6.E.$XM.j.A.1X%.%.M.m.u.v.v.$.$.%.c.n.j.j.j.%.z.",
"Y Y 6 Y W Y 7 6 W [ 8.| _ Y Y E ;.e Y / ) y m Q.8.f.m.i.i.i.B.i.+.%.y.y.O.r.k.(.1.1.n.0.$.$.a.C.p.c.$.u.u.+.! u.b.m.v.0.j.n.c.j.",
"Y [ W ;._ / 5 6 / / ( ( R Y R Y 5 5 6 6 5 ) 4.^.0.t.t.i.B.B.t.t.+.y.a.t.%.) ,.^.,...9.j.A.c.u.p.c.$.%.$.c.x.u.p.p.y.#.a.p.#.$.m.",
"( Y 6 0.8.) Y 6 7.( Y R / ' / e 5 Y 6 6 E X.S.5XO.[ t.i.B.B.! #.[ Y y.O.@.t z z l e.%.0.$.M.m.V.1Xm.$.0.$.0.s.p.p.p.p.d.m.-X#Xd.",
"Y Y W _ E E ' E } _ ( _ ( E 5 6 6 t 6 t _ 7.A 4.X.W %.%.W #.$.@.7 1 _ } 1 * ) 6.<.9.0.u.y.b.x.u.c.%.@.j.M.%X%X0.0.m.n.0.} } 7._ ",
" .[ s.7.` / ..7.<.' ' ' / d 6 6 u d y l ' 6.I.S.` * & $ % 1 7 * 4 4 4 7 3 l P.Q.(.1.$Xn.M.N.v.1Xn.z.z.$X$Xe.e.o.7.f 6 l ` y d 3 ",
"` ] &.h m k e 2 3 2 2 q d s s s w w q n g > p p C s u x F.F a 9 c C A j Y.Y.+XeX{.Y. XsXkXsXOX(.P.5X(..XP.4.~.oX XoX XOX X+XjXXX",
"q : * * * $ X $ $ $ ; ; ; & $ & X $ X X X r I I XXdXdXgXyXtXBXHXgX|.{.dX|.|.gXL L ZXdXdX|.T.|.I.j T.Y. XXXwXdXdXdXlXdXeX).L }.)."
};
